<?xml version="1.0" encoding="utf-8" standalone="no"?>
<!DOCTYPE svg PUBLIC "-//W3C//DTD SVG 1.1//EN"
  "http://www.w3.org/Graphics/SVG/1.1/DTD/svg11.dtd">
<svg xmlns:xlink="http://www.w3.org/1999/xlink" width="712.774688pt" height="496.916562pt" viewBox="0 0 712.774688 496.916562" xmlns="http://www.w3.org/2000/svg" version="1.1">
 <metadata>
  <rdf:RDF xmlns:dc="http://purl.org/dc/elements/1.1/" xmlns:cc="http://creativecommons.org/ns#" xmlns:rdf="http://www.w3.org/1999/02/22-rdf-syntax-ns#">
   <cc:Work>
    <dc:type rdf:resource="http://purl.org/dc/dcmitype/StillImage"/>
    <dc:date>2026-07-17T15:50:58.702173</dc:date>
    <dc:format>image/svg+xml</dc:format>
    <dc:creator>
     <cc:Agent>
      <dc:title>Matplotlib v3.10.5, https://matplotlib.org/</dc:title>
     </cc:Agent>
    </dc:creator>
   </cc:Work>
  </rdf:RDF>
 </metadata>
 <defs>
  <style type="text/css">*{stroke-linejoin: round; stroke-linecap: butt}</style>
 </defs>
 <g id="figure_1">
  <g id="patch_1">
   <path d="M 0 496.916562 
L 712.774688 496.916562 
L 712.774688 0 
L 0 0 
z
" style="fill: #ffffff"/>
  </g>
  <g id="axes_1">
   <g id="patch_2">
    <path d="M 48.928438 455.17 
L 705.574687 455.17 
L 705.574687 7.2 
L 48.928438 7.2 
z
" style="fill: #ffffff"/>
   </g>
   <g id="matplotlib.axis_1">
    <g id="xtick_1">
     <g id="line2d_1">
      <path d="M 78.775994 455.17 
L 78.775994 7.2 
" clip-path="url(#p2f90adad3f)" style="fill: none; stroke-dasharray: 2.96,1.28; stroke-dashoffset: 0; stroke: #808080; stroke-opacity: 0.5; stroke-width: 0.8"/>
     </g>
     <g id="line2d_2">
      <defs>
       <path id="m7f3bf08d64" d="M 0 0 
L 0 3.5 
" style="stroke: #000000; stroke-width: 0.8"/>
      </defs>
      <g>
       <use xlink:href="#m7f3bf08d64" x="78.775994" y="455.17" style="stroke: #000000; stroke-width: 0.8"/>
      </g>
     </g>
     <g id="text_1">
      <!-- 20 -->
      <g transform="translate(72.911932 470.16375) scale(0.1 -0.1)">
       <defs>
        <path id="MicrosoftYaHei-32" d="M 2666 3572 
Q 2666 3963 2419 4186 
Q 2172 4409 1747 4409 
Q 1447 4409 1140 4256 
Q 834 4103 569 3819 
L 569 4413 
Q 806 4659 1107 4790 
Q 1409 4922 1816 4922 
Q 2472 4922 2872 4570 
Q 3272 4219 3272 3619 
Q 3272 3084 3026 2693 
Q 2781 2303 2188 1894 
Q 1581 1475 1376 1294 
Q 1172 1113 1090 947 
Q 1009 781 1009 544 
L 3416 544 
L 3416 0 
L 372 0 
L 372 241 
Q 372 659 486 951 
Q 600 1244 862 1520 
Q 1125 1797 1681 2184 
Q 2250 2584 2458 2886 
Q 2666 3188 2666 3572 
z
" transform="scale(0.015625)"/>
        <path id="MicrosoftYaHei-30" d="M 284 2325 
Q 284 3606 709 4264 
Q 1134 4922 1941 4922 
Q 3478 4922 3478 2441 
Q 3478 1216 3045 567 
Q 2613 -81 1831 -81 
Q 1094 -81 689 534 
Q 284 1150 284 2325 
z
M 909 2353 
Q 909 425 1888 425 
Q 2850 425 2850 2384 
Q 2850 4413 1906 4413 
Q 909 4413 909 2353 
z
" transform="scale(0.015625)"/>
       </defs>
       <use xlink:href="#MicrosoftYaHei-32"/>
       <use xlink:href="#MicrosoftYaHei-30" transform="translate(58.642578 0)"/>
      </g>
     </g>
    </g>
    <g id="xtick_2">
     <g id="line2d_3">
      <path d="M 145.103898 455.17 
L 145.103898 7.2 
" clip-path="url(#p2f90adad3f)" style="fill: none; stroke-dasharray: 2.96,1.28; stroke-dashoffset: 0; stroke: #808080; stroke-opacity: 0.5; stroke-width: 0.8"/>
     </g>
     <g id="line2d_4">
      <g>
       <use xlink:href="#m7f3bf08d64" x="145.103898" y="455.17" style="stroke: #000000; stroke-width: 0.8"/>
      </g>
     </g>
     <g id="text_2">
      <!-- 40 -->
      <g transform="translate(139.239836 470.16375) scale(0.1 -0.1)">
       <defs>
        <path id="MicrosoftYaHei-34" d="M 2906 4841 
L 2906 1644 
L 3631 1644 
L 3631 1138 
L 2906 1138 
L 2906 0 
L 2313 0 
L 2313 1138 
L 53 1138 
L 53 1616 
Q 656 2294 1265 3178 
Q 1875 4063 2272 4841 
L 2906 4841 
z
M 741 1644 
L 2313 1644 
L 2313 3950 
Q 1988 3366 1616 2817 
Q 1244 2269 741 1644 
z
" transform="scale(0.015625)"/>
       </defs>
       <use xlink:href="#MicrosoftYaHei-34"/>
       <use xlink:href="#MicrosoftYaHei-30" transform="translate(58.642578 0)"/>
      </g>
     </g>
    </g>
    <g id="xtick_3">
     <g id="line2d_5">
      <path d="M 211.431802 455.17 
L 211.431802 7.2 
" clip-path="url(#p2f90adad3f)" style="fill: none; stroke-dasharray: 2.96,1.28; stroke-dashoffset: 0; stroke: #808080; stroke-opacity: 0.5; stroke-width: 0.8"/>
     </g>
     <g id="line2d_6">
      <g>
       <use xlink:href="#m7f3bf08d64" x="211.431802" y="455.17" style="stroke: #000000; stroke-width: 0.8"/>
      </g>
     </g>
     <g id="text_3">
      <!-- 60 -->
      <g transform="translate(205.56774 470.16375) scale(0.1 -0.1)">
       <defs>
        <path id="MicrosoftYaHei-36" d="M 3181 4219 
Q 2803 4413 2391 4413 
Q 1763 4413 1381 3866 
Q 1000 3319 994 2372 
L 1009 2372 
Q 1353 3038 2106 3038 
Q 2734 3038 3109 2628 
Q 3484 2219 3484 1541 
Q 3484 831 3051 375 
Q 2619 -81 1947 -81 
Q 1209 -81 789 495 
Q 369 1072 369 2131 
Q 369 3413 920 4167 
Q 1472 4922 2372 4922 
Q 2888 4922 3181 4781 
L 3181 4219 
z
M 1031 1584 
Q 1031 1106 1286 765 
Q 1541 425 1963 425 
Q 2363 425 2613 719 
Q 2863 1013 2863 1475 
Q 2863 1975 2627 2253 
Q 2391 2531 1956 2531 
Q 1544 2531 1287 2250 
Q 1031 1969 1031 1584 
z
" transform="scale(0.015625)"/>
       </defs>
       <use xlink:href="#MicrosoftYaHei-36"/>
       <use xlink:href="#MicrosoftYaHei-30" transform="translate(58.642578 0)"/>
      </g>
     </g>
    </g>
    <g id="xtick_4">
     <g id="line2d_7">
      <path d="M 277.759706 455.17 
L 277.759706 7.2 
" clip-path="url(#p2f90adad3f)" style="fill: none; stroke-dasharray: 2.96,1.28; stroke-dashoffset: 0; stroke: #808080; stroke-opacity: 0.5; stroke-width: 0.8"/>
     </g>
     <g id="line2d_8">
      <g>
       <use xlink:href="#m7f3bf08d64" x="277.759706" y="455.17" style="stroke: #000000; stroke-width: 0.8"/>
      </g>
     </g>
     <g id="text_4">
      <!-- 80 -->
      <g transform="translate(271.895644 470.16375) scale(0.1 -0.1)">
       <defs>
        <path id="MicrosoftYaHei-38" d="M 306 1350 
Q 306 1769 556 2122 
Q 806 2475 1200 2625 
Q 884 2803 700 3081 
Q 516 3359 516 3684 
Q 516 4028 692 4312 
Q 869 4597 1183 4759 
Q 1497 4922 1875 4922 
Q 2256 4922 2572 4761 
Q 2888 4600 3063 4315 
Q 3238 4031 3238 3684 
Q 3238 3366 3058 3086 
Q 2878 2806 2559 2625 
Q 2953 2472 3200 2119 
Q 3447 1766 3447 1350 
Q 3447 938 3250 611 
Q 3053 284 2690 103 
Q 2328 -78 1875 -78 
Q 1425 -78 1065 103 
Q 706 284 506 612 
Q 306 941 306 1350 
z
M 906 1378 
Q 906 947 1172 687 
Q 1438 428 1878 428 
Q 2309 428 2582 692 
Q 2856 956 2856 1378 
Q 2856 1778 2579 2051 
Q 2303 2325 1878 2325 
Q 1456 2325 1181 2058 
Q 906 1791 906 1378 
z
M 1081 3634 
Q 1081 3309 1312 3076 
Q 1544 2844 1878 2844 
Q 2206 2844 2445 3078 
Q 2684 3313 2684 3634 
Q 2684 3963 2454 4191 
Q 2225 4419 1878 4419 
Q 1534 4419 1307 4195 
Q 1081 3972 1081 3634 
z
" transform="scale(0.015625)"/>
       </defs>
       <use xlink:href="#MicrosoftYaHei-38"/>
       <use xlink:href="#MicrosoftYaHei-30" transform="translate(58.642578 0)"/>
      </g>
     </g>
    </g>
    <g id="xtick_5">
     <g id="line2d_9">
      <path d="M 344.08761 455.17 
L 344.08761 7.2 
" clip-path="url(#p2f90adad3f)" style="fill: none; stroke-dasharray: 2.96,1.28; stroke-dashoffset: 0; stroke: #808080; stroke-opacity: 0.5; stroke-width: 0.8"/>
     </g>
     <g id="line2d_10">
      <g>
       <use xlink:href="#m7f3bf08d64" x="344.08761" y="455.17" style="stroke: #000000; stroke-width: 0.8"/>
      </g>
     </g>
     <g id="text_5">
      <!-- 100 -->
      <g transform="translate(335.291517 470.16375) scale(0.1 -0.1)">
       <defs>
        <path id="MicrosoftYaHei-31" d="M 1781 0 
L 1781 4141 
Q 1638 3997 1295 3819 
Q 953 3641 663 3569 
L 663 4169 
Q 1047 4275 1484 4508 
Q 1922 4741 2156 4947 
L 2388 4947 
L 2388 0 
L 1781 0 
z
" transform="scale(0.015625)"/>
       </defs>
       <use xlink:href="#MicrosoftYaHei-31"/>
       <use xlink:href="#MicrosoftYaHei-30" transform="translate(58.642578 0)"/>
       <use xlink:href="#MicrosoftYaHei-30" transform="translate(117.285156 0)"/>
      </g>
     </g>
    </g>
    <g id="xtick_6">
     <g id="line2d_11">
      <path d="M 410.415515 455.17 
L 410.415515 7.2 
" clip-path="url(#p2f90adad3f)" style="fill: none; stroke-dasharray: 2.96,1.28; stroke-dashoffset: 0; stroke: #808080; stroke-opacity: 0.5; stroke-width: 0.8"/>
     </g>
     <g id="line2d_12">
      <g>
       <use xlink:href="#m7f3bf08d64" x="410.415515" y="455.17" style="stroke: #000000; stroke-width: 0.8"/>
      </g>
     </g>
     <g id="text_6">
      <!-- 120 -->
      <g transform="translate(401.619421 470.16375) scale(0.1 -0.1)">
       <use xlink:href="#MicrosoftYaHei-31"/>
       <use xlink:href="#MicrosoftYaHei-32" transform="translate(58.642578 0)"/>
       <use xlink:href="#MicrosoftYaHei-30" transform="translate(117.285156 0)"/>
      </g>
     </g>
    </g>
    <g id="xtick_7">
     <g id="line2d_13">
      <path d="M 476.743419 455.17 
L 476.743419 7.2 
" clip-path="url(#p2f90adad3f)" style="fill: none; stroke-dasharray: 2.96,1.28; stroke-dashoffset: 0; stroke: #808080; stroke-opacity: 0.5; stroke-width: 0.8"/>
     </g>
     <g id="line2d_14">
      <g>
       <use xlink:href="#m7f3bf08d64" x="476.743419" y="455.17" style="stroke: #000000; stroke-width: 0.8"/>
      </g>
     </g>
     <g id="text_7">
      <!-- 140 -->
      <g transform="translate(467.947325 470.16375) scale(0.1 -0.1)">
       <use xlink:href="#MicrosoftYaHei-31"/>
       <use xlink:href="#MicrosoftYaHei-34" transform="translate(58.642578 0)"/>
       <use xlink:href="#MicrosoftYaHei-30" transform="translate(117.285156 0)"/>
      </g>
     </g>
    </g>
    <g id="xtick_8">
     <g id="line2d_15">
      <path d="M 543.071323 455.17 
L 543.071323 7.2 
" clip-path="url(#p2f90adad3f)" style="fill: none; stroke-dasharray: 2.96,1.28; stroke-dashoffset: 0; stroke: #808080; stroke-opacity: 0.5; stroke-width: 0.8"/>
     </g>
     <g id="line2d_16">
      <g>
       <use xlink:href="#m7f3bf08d64" x="543.071323" y="455.17" style="stroke: #000000; stroke-width: 0.8"/>
      </g>
     </g>
     <g id="text_8">
      <!-- 160 -->
      <g transform="translate(534.275229 470.16375) scale(0.1 -0.1)">
       <use xlink:href="#MicrosoftYaHei-31"/>
       <use xlink:href="#MicrosoftYaHei-36" transform="translate(58.642578 0)"/>
       <use xlink:href="#MicrosoftYaHei-30" transform="translate(117.285156 0)"/>
      </g>
     </g>
    </g>
    <g id="xtick_9">
     <g id="line2d_17">
      <path d="M 609.399227 455.17 
L 609.399227 7.2 
" clip-path="url(#p2f90adad3f)" style="fill: none; stroke-dasharray: 2.96,1.28; stroke-dashoffset: 0; stroke: #808080; stroke-opacity: 0.5; stroke-width: 0.8"/>
     </g>
     <g id="line2d_18">
      <g>
       <use xlink:href="#m7f3bf08d64" x="609.399227" y="455.17" style="stroke: #000000; stroke-width: 0.8"/>
      </g>
     </g>
     <g id="text_9">
      <!-- 180 -->
      <g transform="translate(600.603133 470.16375) scale(0.1 -0.1)">
       <use xlink:href="#MicrosoftYaHei-31"/>
       <use xlink:href="#MicrosoftYaHei-38" transform="translate(58.642578 0)"/>
       <use xlink:href="#MicrosoftYaHei-30" transform="translate(117.285156 0)"/>
      </g>
     </g>
    </g>
    <g id="xtick_10">
     <g id="line2d_19">
      <path d="M 675.727131 455.17 
L 675.727131 7.2 
" clip-path="url(#p2f90adad3f)" style="fill: none; stroke-dasharray: 2.96,1.28; stroke-dashoffset: 0; stroke: #808080; stroke-opacity: 0.5; stroke-width: 0.8"/>
     </g>
     <g id="line2d_20">
      <g>
       <use xlink:href="#m7f3bf08d64" x="675.727131" y="455.17" style="stroke: #000000; stroke-width: 0.8"/>
      </g>
     </g>
     <g id="text_10">
      <!-- 200 -->
      <g transform="translate(666.931037 470.16375) scale(0.1 -0.1)">
       <use xlink:href="#MicrosoftYaHei-32"/>
       <use xlink:href="#MicrosoftYaHei-30" transform="translate(58.642578 0)"/>
       <use xlink:href="#MicrosoftYaHei-30" transform="translate(117.285156 0)"/>
      </g>
     </g>
    </g>
    <g id="text_11">
     <!-- Training Epochs (训练轮数) -->
     <g transform="translate(299.116562 486.675312) scale(0.12 -0.12)">
      <defs>
       <path id="MicrosoftYaHei-Bold-54" d="M 3900 3997 
L 2519 3997 
L 2519 0 
L 1484 0 
L 1484 3997 
L 106 3997 
L 106 4841 
L 3900 4841 
L 3900 3997 
z
" transform="scale(0.015625)"/>
       <path id="MicrosoftYaHei-Bold-72" d="M 2663 2541 
Q 2478 2647 2216 2647 
Q 1872 2647 1670 2384 
Q 1469 2122 1469 1663 
L 1469 0 
L 459 0 
L 459 3456 
L 1469 3456 
L 1469 2806 
L 1481 2806 
Q 1731 3516 2391 3516 
Q 2569 3516 2663 3475 
L 2663 2541 
z
" transform="scale(0.015625)"/>
       <path id="MicrosoftYaHei-Bold-61" d="M 544 3247 
Q 778 3378 1170 3459 
Q 1563 3541 1841 3541 
Q 3291 3541 3291 2088 
L 3291 0 
L 2331 0 
L 2331 503 
L 2319 503 
Q 1966 -84 1284 -84 
Q 794 -84 498 195 
Q 203 475 203 956 
Q 203 1950 1388 2113 
L 2338 2241 
Q 2338 2844 1709 2844 
Q 1091 2844 544 2469 
L 544 3247 
z
M 1684 1566 
Q 1138 1494 1138 1072 
Q 1138 878 1270 759 
Q 1403 641 1628 641 
Q 1938 641 2138 859 
Q 2338 1078 2338 1403 
L 2338 1650 
L 1684 1566 
z
" transform="scale(0.015625)"/>
       <path id="MicrosoftYaHei-Bold-69" d="M 369 4572 
Q 369 4803 533 4948 
Q 697 5094 953 5094 
Q 1216 5094 1378 4945 
Q 1541 4797 1541 4572 
Q 1541 4344 1375 4192 
Q 1209 4041 953 4041 
Q 700 4041 534 4194 
Q 369 4347 369 4572 
z
M 444 0 
L 444 3456 
L 1450 3456 
L 1450 0 
L 444 0 
z
" transform="scale(0.015625)"/>
       <path id="MicrosoftYaHei-Bold-6e" d="M 3744 0 
L 2741 0 
L 2741 1928 
Q 2741 2766 2138 2766 
Q 1850 2766 1659 2542 
Q 1469 2319 1469 1972 
L 1469 0 
L 459 0 
L 459 3456 
L 1469 3456 
L 1469 2906 
L 1481 2906 
Q 1859 3541 2594 3541 
Q 3744 3541 3744 2116 
L 3744 0 
z
" transform="scale(0.015625)"/>
       <path id="MicrosoftYaHei-Bold-67" d="M 3800 381 
Q 3800 -581 3251 -1101 
Q 2703 -1622 1672 -1622 
Q 972 -1622 559 -1422 
L 559 -559 
Q 1097 -872 1644 -872 
Q 2184 -872 2489 -583 
Q 2794 -294 2794 219 
L 2794 506 
L 2778 506 
Q 2413 -84 1691 -84 
Q 1038 -84 645 381 
Q 253 847 253 1628 
Q 253 2500 686 3020 
Q 1119 3541 1822 3541 
Q 2459 3541 2778 3044 
L 2794 3044 
L 2794 3456 
L 3800 3456 
L 3800 381 
z
M 2803 1950 
Q 2803 2294 2595 2530 
Q 2388 2766 2072 2766 
Q 1703 2766 1489 2477 
Q 1275 2188 1275 1666 
Q 1275 1213 1481 952 
Q 1688 691 2028 691 
Q 2372 691 2587 956 
Q 2803 1222 2803 1647 
L 2803 1950 
z
" transform="scale(0.015625)"/>
       <path id="MicrosoftYaHei-Bold-20" transform="scale(0.015625)"/>
       <path id="MicrosoftYaHei-Bold-45" d="M 3425 0 
L 559 0 
L 559 4841 
L 3313 4841 
L 3313 3997 
L 1591 3997 
L 1591 2856 
L 3191 2856 
L 3191 2016 
L 1591 2016 
L 1591 844 
L 3425 844 
L 3425 0 
z
" transform="scale(0.015625)"/>
       <path id="MicrosoftYaHei-Bold-70" d="M 1469 416 
L 1469 -1591 
L 459 -1591 
L 459 3456 
L 1469 3456 
L 1469 2928 
L 1481 2928 
Q 1878 3541 2603 3541 
Q 3263 3541 3634 3080 
Q 4006 2619 4006 1825 
Q 4006 959 3575 437 
Q 3144 -84 2444 -84 
Q 1809 -84 1481 416 
L 1469 416 
z
M 1453 1528 
Q 1453 1159 1653 925 
Q 1853 691 2172 691 
Q 2550 691 2761 984 
Q 2972 1278 2972 1816 
Q 2972 2766 2231 2766 
Q 1888 2766 1670 2503 
Q 1453 2241 1453 1828 
L 1453 1528 
z
" transform="scale(0.015625)"/>
       <path id="MicrosoftYaHei-Bold-6f" d="M 253 1713 
Q 253 2566 764 3053 
Q 1275 3541 2138 3541 
Q 2972 3541 3462 3061 
Q 3953 2581 3953 1772 
Q 3953 922 3450 419 
Q 2947 -84 2088 -84 
Q 1244 -84 748 398 
Q 253 881 253 1713 
z
M 1275 1725 
Q 1275 691 2119 691 
Q 2928 691 2928 1753 
Q 2928 2766 2113 2766 
Q 1716 2766 1495 2494 
Q 1275 2222 1275 1725 
z
" transform="scale(0.015625)"/>
       <path id="MicrosoftYaHei-Bold-63" d="M 3050 128 
Q 2688 -84 2019 -84 
Q 1228 -84 740 397 
Q 253 878 253 1644 
Q 253 2525 778 3033 
Q 1303 3541 2178 3541 
Q 2769 3541 3053 3378 
L 3053 2513 
Q 2706 2766 2297 2766 
Q 1834 2766 1554 2484 
Q 1275 2203 1275 1713 
Q 1275 1238 1540 964 
Q 1806 691 2263 691 
Q 2666 691 3050 947 
L 3050 128 
z
" transform="scale(0.015625)"/>
       <path id="MicrosoftYaHei-Bold-68" d="M 3725 0 
L 2719 0 
L 2719 1969 
Q 2719 2766 2138 2766 
Q 1847 2766 1658 2544 
Q 1469 2322 1469 1969 
L 1469 0 
L 459 0 
L 459 5116 
L 1469 5116 
L 1469 2938 
L 1481 2938 
Q 1878 3541 2550 3541 
Q 3725 3541 3725 2122 
L 3725 0 
z
" transform="scale(0.015625)"/>
       <path id="MicrosoftYaHei-Bold-73" d="M 369 928 
Q 888 613 1384 613 
Q 2009 613 2009 947 
Q 2009 1184 1494 1344 
Q 850 1544 609 1789 
Q 369 2034 369 2453 
Q 369 2963 781 3252 
Q 1194 3541 1863 3541 
Q 2338 3541 2778 3400 
L 2778 2606 
Q 2375 2844 1891 2844 
Q 1650 2844 1503 2758 
Q 1356 2672 1356 2531 
Q 1356 2294 1794 2147 
Q 2263 1991 2498 1862 
Q 2734 1734 2857 1525 
Q 2981 1316 2981 1041 
Q 2981 506 2553 211 
Q 2125 -84 1409 -84 
Q 847 -84 369 94 
L 369 928 
z
" transform="scale(0.015625)"/>
       <path id="MicrosoftYaHei-Bold-28" d="M 1606 -1100 
Q 525 97 525 1853 
Q 525 3550 1606 4841 
L 2431 4841 
Q 1406 3497 1406 1853 
Q 1406 216 2438 -1100 
L 1606 -1100 
z
" transform="scale(0.015625)"/>
       <path id="MicrosoftYaHei-Bold-8bad" d="M 956 5259 
Q 1475 4753 1925 4234 
L 1263 3684 
Q 769 4328 356 4747 
L 956 5259 
z
M 2450 5184 
L 3281 5184 
L 3281 2066 
Q 3281 209 2275 -884 
Q 1844 -528 1519 -328 
Q 2450 659 2450 2134 
L 2450 5184 
z
M 5238 5184 
L 6069 5184 
L 6069 -784 
L 5238 -784 
L 5238 5184 
z
M 3856 4953 
L 4663 4953 
L 4663 -416 
L 3856 -416 
L 3856 4953 
z
M 2019 1772 
Q 2050 1466 2175 916 
Q 1556 353 925 -341 
L 488 266 
Q 650 447 650 772 
L 650 2422 
L 125 2422 
L 125 3266 
L 1475 3266 
L 1475 1297 
Q 1769 1541 2019 1772 
z
" transform="scale(0.015625)"/>
       <path id="MicrosoftYaHei-Bold-7ec3" d="M 2400 3516 
L 2984 3516 
L 3159 4028 
L 2263 4028 
L 2263 4753 
L 3394 4753 
L 3575 5347 
L 4413 5291 
L 4238 4753 
L 6000 4753 
L 6000 4028 
L 3994 4028 
L 3809 3516 
L 4969 3516 
L 4969 2191 
L 6025 2191 
L 6025 1484 
L 4969 1484 
L 4969 297 
Q 4969 -131 4831 -397 
Q 4694 -663 4444 -758 
Q 4194 -853 3394 -853 
Q 3294 -309 3225 -34 
Q 3525 -72 3756 -72 
Q 4125 -72 4125 491 
L 4125 1484 
L 2513 1484 
L 2513 2291 
Q 2613 2525 2716 2791 
L 2400 2791 
L 2400 3516 
z
M 3306 2191 
L 4125 2191 
L 4125 2791 
L 3541 2791 
L 3306 2191 
z
M 1013 3372 
L 1419 3388 
L 1744 3966 
L 2413 3659 
L 1356 1797 
Q 1894 1872 2294 1941 
Q 2263 1684 2231 1159 
Q 931 984 475 866 
L 244 1566 
Q 531 1816 1009 2653 
L 306 2584 
L 75 3297 
Q 575 3966 1219 5341 
L 2000 5028 
Q 1450 4053 1013 3372 
z
M 75 372 
Q 1100 478 2288 672 
Q 2275 350 2272 116 
Q 2722 741 3000 1309 
L 3706 1003 
Q 3294 197 2738 -597 
Q 2469 -409 2078 -191 
L 238 -503 
L 75 372 
z
M 5000 978 
L 5619 1278 
Q 5994 584 6369 -197 
L 5713 -534 
Q 5356 316 5000 978 
z
" transform="scale(0.015625)"/>
       <path id="MicrosoftYaHei-Bold-8f6e" d="M 5706 2203 
Q 4894 1547 3950 1078 
L 3950 428 
Q 3950 59 4325 59 
L 4731 59 
Q 5100 59 5156 309 
Q 5219 641 5263 1216 
Q 5519 1109 6100 916 
Q 6031 297 5913 -109 
Q 5781 -716 4850 -716 
L 3931 -716 
Q 3119 -716 3119 178 
L 3119 2828 
Q 2956 2678 2788 2541 
Q 2631 2853 2306 3291 
Q 3369 4084 3944 5278 
L 4988 5278 
L 4850 5059 
Q 5400 4091 6350 3459 
L 5931 2622 
Q 4894 3384 4369 4366 
Q 3863 3547 3206 2916 
L 3950 2916 
L 3950 1959 
Q 4588 2328 5088 2784 
L 5706 2203 
z
M 125 141 
L 106 934 
Q 575 947 1400 978 
L 1400 1559 
L 150 1559 
L 150 2341 
Q 363 2928 569 3778 
L 106 3778 
L 106 4522 
L 738 4522 
Q 813 4878 888 5272 
L 1731 5216 
Q 1650 4853 1569 4522 
L 2788 4522 
L 2788 3778 
L 1381 3778 
Q 1163 2953 950 2303 
L 1400 2303 
L 1400 3391 
L 2150 3391 
L 2150 2303 
L 2719 2303 
L 2719 1559 
L 2150 1559 
L 2150 1009 
Q 2456 1022 2800 1041 
Q 2794 641 2800 297 
Q 2450 278 2150 259 
L 2150 -859 
L 1400 -859 
L 1400 222 
Q 569 172 125 141 
z
" transform="scale(0.015625)"/>
       <path id="MicrosoftYaHei-Bold-6570" d="M 238 4091 
L 725 4091 
Q 559 4425 281 4803 
L 844 5153 
Q 1038 4922 1369 4428 
L 806 4091 
L 1506 4091 
L 1506 5316 
L 2300 5316 
L 2300 4091 
L 2956 4091 
L 2438 4428 
Q 2750 4809 2963 5172 
L 3550 4822 
Q 3341 4466 3031 4091 
L 3394 4091 
L 3394 3453 
L 2300 3453 
L 2300 3016 
L 2513 3303 
Q 2903 3094 3253 2891 
Q 3766 3841 4138 5347 
L 4994 5266 
Q 4869 4781 4728 4341 
L 6294 4341 
L 6294 3578 
L 6041 3578 
Q 5906 1922 5338 856 
Q 5738 391 6319 53 
Q 6094 -203 5775 -778 
Q 5228 -413 4828 109 
Q 4313 -497 3631 -872 
Q 3378 -513 3072 -197 
L 2850 -566 
Q 2475 -350 2031 -128 
Q 1347 -584 394 -778 
Q 281 -434 63 -9 
Q 716 59 1213 253 
Q 781 444 300 641 
Q 513 950 681 1259 
L 169 1259 
L 169 1897 
L 991 1897 
Q 1094 2144 1169 2391 
L 1506 2359 
L 1506 2959 
Q 1044 2472 344 2053 
Q 213 2472 50 2803 
Q 672 3044 1172 3453 
L 238 3453 
L 238 4091 
z
M 4394 3400 
Q 4519 2359 4831 1659 
Q 5203 2478 5275 3578 
L 4463 3578 
Q 4431 3488 4394 3400 
z
M 2300 2216 
L 1984 2216 
Q 1913 2063 1825 1897 
L 3281 1897 
L 3281 1316 
Q 3038 806 2672 413 
L 3294 166 
L 3169 -38 
Q 3859 322 4347 894 
Q 4041 1522 3878 2300 
Q 3769 2103 3656 1922 
Q 3513 2172 3322 2438 
L 3138 2159 
Q 2750 2422 2300 2691 
L 2300 2216 
z
M 1300 934 
L 1950 691 
Q 2231 934 2413 1259 
L 1484 1259 
L 1300 934 
z
" transform="scale(0.015625)"/>
       <path id="MicrosoftYaHei-Bold-29" d="M 59 -1100 
Q 1097 216 1097 1853 
Q 1097 3484 59 4841 
L 888 4841 
Q 1978 3544 1978 1853 
Q 1978 113 881 -1100 
L 59 -1100 
z
" transform="scale(0.015625)"/>
      </defs>
      <use xlink:href="#MicrosoftYaHei-Bold-54"/>
      <use xlink:href="#MicrosoftYaHei-Bold-72" transform="translate(54.298828 0)"/>
      <use xlink:href="#MicrosoftYaHei-Bold-61" transform="translate(96.681641 0)"/>
      <use xlink:href="#MicrosoftYaHei-Bold-69" transform="translate(154.445312 0)"/>
      <use xlink:href="#MicrosoftYaHei-Bold-6e" transform="translate(184.035156 0)"/>
      <use xlink:href="#MicrosoftYaHei-Bold-69" transform="translate(248.830078 0)"/>
      <use xlink:href="#MicrosoftYaHei-Bold-6e" transform="translate(278.419922 0)"/>
      <use xlink:href="#MicrosoftYaHei-Bold-67" transform="translate(343.214844 0)"/>
      <use xlink:href="#MicrosoftYaHei-Bold-20" transform="translate(409.669922 0)"/>
      <use xlink:href="#MicrosoftYaHei-Bold-45" transform="translate(439.455078 0)"/>
      <use xlink:href="#MicrosoftYaHei-Bold-70" transform="translate(496.632812 0)"/>
      <use xlink:href="#MicrosoftYaHei-Bold-6f" transform="translate(563.234375 0)"/>
      <use xlink:href="#MicrosoftYaHei-Bold-63" transform="translate(628.957031 0)"/>
      <use xlink:href="#MicrosoftYaHei-Bold-68" transform="translate(680.617188 0)"/>
      <use xlink:href="#MicrosoftYaHei-Bold-73" transform="translate(745.167969 0)"/>
      <use xlink:href="#MicrosoftYaHei-Bold-20" transform="translate(794.533203 0)"/>
      <use xlink:href="#MicrosoftYaHei-Bold-28" transform="translate(824.318359 0)"/>
      <use xlink:href="#MicrosoftYaHei-Bold-8bad" transform="translate(863.283203 0)"/>
      <use xlink:href="#MicrosoftYaHei-Bold-7ec3" transform="translate(963.283203 0)"/>
      <use xlink:href="#MicrosoftYaHei-Bold-8f6e" transform="translate(1063.283203 0)"/>
      <use xlink:href="#MicrosoftYaHei-Bold-6570" transform="translate(1163.283203 0)"/>
      <use xlink:href="#MicrosoftYaHei-Bold-29" transform="translate(1263.283203 0)"/>
     </g>
    </g>
   </g>
   <g id="matplotlib.axis_2">
    <g id="ytick_1">
     <g id="line2d_21">
      <path d="M 48.928438 413.37334 
L 705.574687 413.37334 
" clip-path="url(#p2f90adad3f)" style="fill: none; stroke-dasharray: 2.96,1.28; stroke-dashoffset: 0; stroke: #808080; stroke-opacity: 0.5; stroke-width: 0.8"/>
     </g>
     <g id="line2d_22">
      <defs>
       <path id="m7bfeae828f" d="M 0 0 
L -3.5 0 
" style="stroke: #000000; stroke-width: 0.8"/>
      </defs>
      <g>
       <use xlink:href="#m7bfeae828f" x="48.928438" y="413.37334" style="stroke: #000000; stroke-width: 0.8"/>
      </g>
     </g>
     <g id="text_12">
      <!-- 50 -->
      <g transform="translate(30.200313 417.370215) scale(0.1 -0.1)">
       <defs>
        <path id="MicrosoftYaHei-35" d="M 3294 1494 
Q 3294 784 2823 350 
Q 2353 -84 1559 -84 
Q 878 -84 544 119 
L 544 744 
Q 1034 425 1544 425 
Q 2050 425 2361 704 
Q 2672 984 2672 1447 
Q 2672 1909 2348 2167 
Q 2025 2425 1434 2425 
Q 978 2425 613 2384 
L 791 4841 
L 3053 4841 
L 3053 4303 
L 1306 4303 
L 1206 2931 
L 1647 2950 
Q 2416 2950 2855 2567 
Q 3294 2184 3294 1494 
z
" transform="scale(0.015625)"/>
       </defs>
       <use xlink:href="#MicrosoftYaHei-35"/>
       <use xlink:href="#MicrosoftYaHei-30" transform="translate(58.642578 0)"/>
      </g>
     </g>
    </g>
    <g id="ytick_2">
     <g id="line2d_23">
      <path d="M 48.928438 336.736861 
L 705.574687 336.736861 
" clip-path="url(#p2f90adad3f)" style="fill: none; stroke-dasharray: 2.96,1.28; stroke-dashoffset: 0; stroke: #808080; stroke-opacity: 0.5; stroke-width: 0.8"/>
     </g>
     <g id="line2d_24">
      <g>
       <use xlink:href="#m7bfeae828f" x="48.928438" y="336.736861" style="stroke: #000000; stroke-width: 0.8"/>
      </g>
     </g>
     <g id="text_13">
      <!-- 60 -->
      <g transform="translate(30.200313 340.733736) scale(0.1 -0.1)">
       <use xlink:href="#MicrosoftYaHei-36"/>
       <use xlink:href="#MicrosoftYaHei-30" transform="translate(58.642578 0)"/>
      </g>
     </g>
    </g>
    <g id="ytick_3">
     <g id="line2d_25">
      <path d="M 48.928438 260.100382 
L 705.574687 260.100382 
" clip-path="url(#p2f90adad3f)" style="fill: none; stroke-dasharray: 2.96,1.28; stroke-dashoffset: 0; stroke: #808080; stroke-opacity: 0.5; stroke-width: 0.8"/>
     </g>
     <g id="line2d_26">
      <g>
       <use xlink:href="#m7bfeae828f" x="48.928438" y="260.100382" style="stroke: #000000; stroke-width: 0.8"/>
      </g>
     </g>
     <g id="text_14">
      <!-- 70 -->
      <g transform="translate(30.200313 264.097257) scale(0.1 -0.1)">
       <defs>
        <path id="MicrosoftYaHei-37" d="M 3422 4463 
Q 2659 3131 2223 1998 
Q 1788 866 1684 0 
L 1047 0 
Q 1163 853 1594 1947 
Q 2025 3041 2747 4300 
L 347 4300 
L 347 4841 
L 3422 4841 
L 3422 4463 
z
" transform="scale(0.015625)"/>
       </defs>
       <use xlink:href="#MicrosoftYaHei-37"/>
       <use xlink:href="#MicrosoftYaHei-30" transform="translate(58.642578 0)"/>
      </g>
     </g>
    </g>
    <g id="ytick_4">
     <g id="line2d_27">
      <path d="M 48.928438 183.463902 
L 705.574687 183.463902 
" clip-path="url(#p2f90adad3f)" style="fill: none; stroke-dasharray: 2.96,1.28; stroke-dashoffset: 0; stroke: #808080; stroke-opacity: 0.5; stroke-width: 0.8"/>
     </g>
     <g id="line2d_28">
      <g>
       <use xlink:href="#m7bfeae828f" x="48.928438" y="183.463902" style="stroke: #000000; stroke-width: 0.8"/>
      </g>
     </g>
     <g id="text_15">
      <!-- 80 -->
      <g transform="translate(30.200313 187.460777) scale(0.1 -0.1)">
       <use xlink:href="#MicrosoftYaHei-38"/>
       <use xlink:href="#MicrosoftYaHei-30" transform="translate(58.642578 0)"/>
      </g>
     </g>
    </g>
    <g id="ytick_5">
     <g id="line2d_29">
      <path d="M 48.928438 106.827423 
L 705.574687 106.827423 
" clip-path="url(#p2f90adad3f)" style="fill: none; stroke-dasharray: 2.96,1.28; stroke-dashoffset: 0; stroke: #808080; stroke-opacity: 0.5; stroke-width: 0.8"/>
     </g>
     <g id="line2d_30">
      <g>
       <use xlink:href="#m7bfeae828f" x="48.928438" y="106.827423" style="stroke: #000000; stroke-width: 0.8"/>
      </g>
     </g>
     <g id="text_16">
      <!-- 90 -->
      <g transform="translate(30.200313 110.824298) scale(0.1 -0.1)">
       <defs>
        <path id="MicrosoftYaHei-39" d="M 578 656 
Q 978 425 1441 425 
Q 2091 425 2448 937 
Q 2806 1450 2806 2394 
Q 2800 2388 2794 2394 
Q 2475 1788 1722 1788 
Q 1113 1788 713 2206 
Q 313 2625 313 3294 
Q 313 4006 750 4464 
Q 1188 4922 1884 4922 
Q 2606 4922 3012 4355 
Q 3419 3788 3419 2703 
Q 3419 1363 2894 641 
Q 2369 -81 1441 -81 
Q 931 -81 578 84 
L 578 656 
z
M 931 3372 
Q 931 2884 1181 2598 
Q 1431 2313 1872 2313 
Q 2253 2313 2512 2573 
Q 2772 2834 2772 3206 
Q 2772 3728 2514 4070 
Q 2256 4413 1834 4413 
Q 1444 4413 1187 4116 
Q 931 3819 931 3372 
z
" transform="scale(0.015625)"/>
       </defs>
       <use xlink:href="#MicrosoftYaHei-39"/>
       <use xlink:href="#MicrosoftYaHei-30" transform="translate(58.642578 0)"/>
      </g>
     </g>
    </g>
    <g id="ytick_6">
     <g id="line2d_31">
      <path d="M 48.928438 30.190944 
L 705.574687 30.190944 
" clip-path="url(#p2f90adad3f)" style="fill: none; stroke-dasharray: 2.96,1.28; stroke-dashoffset: 0; stroke: #808080; stroke-opacity: 0.5; stroke-width: 0.8"/>
     </g>
     <g id="line2d_32">
      <g>
       <use xlink:href="#m7bfeae828f" x="48.928438" y="30.190944" style="stroke: #000000; stroke-width: 0.8"/>
      </g>
     </g>
     <g id="text_17">
      <!-- 100 -->
      <g transform="translate(24.33625 34.187819) scale(0.1 -0.1)">
       <use xlink:href="#MicrosoftYaHei-31"/>
       <use xlink:href="#MicrosoftYaHei-30" transform="translate(58.642578 0)"/>
       <use xlink:href="#MicrosoftYaHei-30" transform="translate(117.285156 0)"/>
      </g>
     </g>
    </g>
    <g id="text_18">
     <!-- Accuracy / 准确率 (%) -->
     <g transform="translate(17.295 294.797187) rotate(-90) scale(0.12 -0.12)">
      <defs>
       <path id="MicrosoftYaHei-Bold-41" d="M 4759 0 
L 3634 0 
L 3272 1109 
L 1513 1109 
L 1156 0 
L 38 0 
L 1809 4841 
L 3022 4841 
L 4759 0 
z
M 3028 1906 
L 2478 3584 
Q 2425 3744 2403 4006 
L 2375 4006 
Q 2356 3794 2291 3597 
L 1738 1906 
L 3028 1906 
z
" transform="scale(0.015625)"/>
       <path id="MicrosoftYaHei-Bold-75" d="M 3691 0 
L 2688 0 
L 2688 528 
L 2672 528 
Q 2284 -84 1613 -84 
Q 406 -84 406 1372 
L 406 3456 
L 1416 3456 
L 1416 1466 
Q 1416 691 2022 691 
Q 2325 691 2506 903 
Q 2688 1116 2688 1478 
L 2688 3456 
L 3691 3456 
L 3691 0 
z
" transform="scale(0.015625)"/>
       <path id="MicrosoftYaHei-Bold-79" d="M 3691 3456 
L 2266 -309 
Q 1769 -1622 778 -1622 
Q 388 -1622 172 -1541 
L 172 -731 
Q 375 -847 619 -847 
Q 1031 -847 1200 -447 
L 1391 6 
L -6 3456 
L 1113 3456 
L 1788 1291 
Q 1850 1094 1878 850 
L 1897 850 
Q 1919 1016 2000 1284 
L 2691 3456 
L 3691 3456 
z
" transform="scale(0.015625)"/>
       <path id="MicrosoftYaHei-Bold-2f" d="M 3100 4841 
L 747 -803 
L -156 -803 
L 2188 4841 
L 3100 4841 
z
" transform="scale(0.015625)"/>
       <path id="MicrosoftYaHei-Bold-51c6" d="M 2594 5328 
L 3406 5116 
Q 3250 4675 3066 4266 
L 4350 4266 
Q 4100 4581 3781 4941 
L 4406 5384 
Q 4819 4966 5175 4541 
L 4778 4266 
L 6181 4266 
L 6181 3591 
L 4906 3591 
L 4906 2916 
L 6131 2916 
L 6131 2272 
L 4906 2272 
L 4906 1597 
L 6131 1597 
L 6131 953 
L 4906 953 
L 4906 266 
L 6250 266 
L 6250 -397 
L 2963 -397 
L 2963 -847 
L 2113 -847 
L 2113 2588 
Q 1941 2350 1756 2122 
Q 1550 2603 1356 2959 
Q 2188 3959 2594 5328 
z
M 2963 2916 
L 4056 2916 
L 4056 3591 
L 2963 3591 
L 2963 2916 
z
M 2963 1597 
L 4056 1597 
L 4056 2272 
L 2963 2272 
L 2963 1597 
z
M 2963 266 
L 4056 266 
L 4056 953 
L 2963 953 
L 2963 266 
z
M 731 5022 
Q 1200 4422 1700 3709 
L 956 3203 
Q 525 3903 38 4572 
L 731 5022 
z
M 925 2472 
Q 1344 2241 1738 2059 
L 825 -609 
Q 481 -353 44 -109 
Q 475 966 925 2472 
z
" transform="scale(0.015625)"/>
       <path id="MicrosoftYaHei-Bold-786e" d="M 5625 4884 
L 5625 4216 
L 5228 3716 
L 6088 3716 
L 6088 134 
Q 6088 -200 5986 -408 
Q 5884 -616 5704 -686 
Q 5525 -756 4938 -766 
Q 4863 -334 4744 53 
Q 5031 16 5134 16 
Q 5375 16 5375 278 
L 5375 666 
L 4663 666 
L 4663 -684 
L 3963 -684 
L 3963 666 
L 3250 666 
Q 3153 -316 2813 -878 
Q 2513 -584 2163 -353 
Q 2594 322 2575 1803 
L 2575 3134 
L 2425 3009 
Q 2244 3378 2006 3709 
Q 2906 4397 3431 5353 
L 4238 5197 
Q 4156 5038 4063 4884 
L 5625 4884 
z
M 3181 3716 
L 4338 3716 
L 4731 4228 
L 3619 4228 
Q 3416 3966 3181 3716 
z
M 5375 3053 
L 4663 3053 
L 4663 2422 
L 5375 2422 
L 5375 3053 
z
M 3288 2422 
L 3963 2422 
L 3963 3053 
L 3288 3053 
L 3288 2422 
z
M 4663 1228 
L 5375 1228 
L 5375 1859 
L 4663 1859 
L 4663 1228 
z
M 3284 1228 
L 3963 1228 
L 3963 1859 
L 3288 1859 
Q 3288 1534 3284 1228 
z
M 2413 4191 
L 1656 4191 
Q 1528 3666 1347 3178 
L 2231 3178 
L 2231 -116 
L 1256 -116 
L 1256 -509 
L 563 -509 
L 563 1569 
Q 466 1416 363 1266 
Q 244 1797 38 2228 
Q 613 3084 866 4191 
L 250 4191 
L 250 4891 
L 2413 4891 
L 2413 4191 
z
M 1538 566 
L 1538 2497 
L 1256 2497 
L 1256 566 
L 1538 566 
z
" transform="scale(0.015625)"/>
       <path id="MicrosoftYaHei-Bold-7387" d="M 213 4766 
L 2719 4766 
L 2613 5303 
L 3588 5341 
Q 3631 5119 3684 4766 
L 6200 4766 
L 6200 4028 
L 3447 4028 
L 2775 3391 
L 3391 3403 
Q 3672 3675 3969 3991 
L 4606 3622 
Q 3894 2928 2919 2122 
L 3684 2172 
Q 3588 2322 3500 2447 
L 4069 2772 
Q 4506 2203 4888 1603 
L 4263 1253 
L 4063 1581 
Q 2722 1488 1938 1397 
L 1681 2053 
Q 2163 2328 2722 2797 
Q 2322 2766 2013 2728 
L 1719 3309 
Q 2050 3463 2519 4028 
L 213 4028 
L 213 4766 
z
M 5944 3484 
L 5119 2803 
Q 5609 2513 6188 2141 
L 5725 1472 
Q 5125 1972 4488 2416 
L 4800 2844 
L 4500 3216 
Q 5044 3616 5438 3966 
L 5944 3484 
z
M 375 3472 
L 856 3959 
Q 1225 3672 1650 3272 
L 1144 2759 
Q 713 3191 375 3472 
z
M 1569 2941 
L 1950 2372 
L 544 1372 
L 175 2122 
Q 700 2397 1569 2941 
z
M 88 1066 
L 2763 1066 
L 2763 1341 
L 3638 1341 
L 3638 1066 
L 6288 1066 
L 6288 328 
L 3638 328 
L 3638 -872 
L 2763 -872 
L 2763 328 
L 88 328 
L 88 1066 
z
" transform="scale(0.015625)"/>
       <path id="MicrosoftYaHei-Bold-25" d="M 297 3597 
Q 297 4191 626 4548 
Q 956 4906 1519 4906 
Q 2056 4906 2354 4581 
Q 2653 4256 2653 3684 
Q 2653 3097 2322 2744 
Q 1991 2391 1438 2391 
Q 919 2391 608 2722 
Q 297 3053 297 3597 
z
M 984 3631 
Q 984 2959 1478 2959 
Q 1981 2959 1981 3659 
Q 1981 4338 1500 4338 
Q 984 4338 984 3631 
z
M 4938 4841 
L 1791 -3 
L 1006 -3 
L 4147 4841 
L 4938 4841 
z
M 3297 1141 
Q 3297 1741 3631 2095 
Q 3966 2450 4522 2450 
Q 5059 2450 5357 2131 
Q 5656 1813 5656 1234 
Q 5656 641 5322 286 
Q 4988 -69 4438 -69 
Q 3922 -69 3609 264 
Q 3297 597 3297 1141 
z
M 3981 1175 
Q 3981 500 4478 500 
Q 4978 500 4978 1200 
Q 4978 1528 4845 1704 
Q 4713 1881 4491 1881 
Q 3981 1881 3981 1175 
z
" transform="scale(0.015625)"/>
      </defs>
      <use xlink:href="#MicrosoftYaHei-Bold-41"/>
      <use xlink:href="#MicrosoftYaHei-Bold-63" transform="translate(75.195312 0)"/>
      <use xlink:href="#MicrosoftYaHei-Bold-63" transform="translate(126.855469 0)"/>
      <use xlink:href="#MicrosoftYaHei-Bold-75" transform="translate(178.515625 0)"/>
      <use xlink:href="#MicrosoftYaHei-Bold-72" transform="translate(243.310547 0)"/>
      <use xlink:href="#MicrosoftYaHei-Bold-61" transform="translate(285.693359 0)"/>
      <use xlink:href="#MicrosoftYaHei-Bold-63" transform="translate(343.457031 0)"/>
      <use xlink:href="#MicrosoftYaHei-Bold-79" transform="translate(395.117188 0)"/>
      <use xlink:href="#MicrosoftYaHei-Bold-20" transform="translate(452.539062 0)"/>
      <use xlink:href="#MicrosoftYaHei-Bold-2f" transform="translate(482.324219 0)"/>
      <use xlink:href="#MicrosoftYaHei-Bold-20" transform="translate(529.589844 0)"/>
      <use xlink:href="#MicrosoftYaHei-Bold-51c6" transform="translate(559.375 0)"/>
      <use xlink:href="#MicrosoftYaHei-Bold-786e" transform="translate(659.375 0)"/>
      <use xlink:href="#MicrosoftYaHei-Bold-7387" transform="translate(759.375 0)"/>
      <use xlink:href="#MicrosoftYaHei-Bold-20" transform="translate(859.375 0)"/>
      <use xlink:href="#MicrosoftYaHei-Bold-28" transform="translate(889.160156 0)"/>
      <use xlink:href="#MicrosoftYaHei-Bold-25" transform="translate(928.125 0)"/>
      <use xlink:href="#MicrosoftYaHei-Bold-29" transform="translate(1021.240234 0)"/>
     </g>
    </g>
   </g>
   <g id="LineCollection_1">
    <path d="M 78.775994 80.680075 
L 78.775994 77.289301 
" clip-path="url(#p2f90adad3f)" style="fill: none; stroke: #000000; stroke-opacity: 0.85; stroke-width: 1.5"/>
    <path d="M 145.103898 62.042255 
L 145.103898 56.070676 
" clip-path="url(#p2f90adad3f)" style="fill: none; stroke: #000000; stroke-opacity: 0.85; stroke-width: 1.5"/>
    <path d="M 211.431802 46.79096 
L 211.431802 43.179245 
" clip-path="url(#p2f90adad3f)" style="fill: none; stroke: #000000; stroke-opacity: 0.85; stroke-width: 1.5"/>
    <path d="M 277.759706 40.363659 
L 277.759706 38.070001 
" clip-path="url(#p2f90adad3f)" style="fill: none; stroke: #000000; stroke-opacity: 0.85; stroke-width: 1.5"/>
    <path d="M 344.08761 35.096866 
L 344.08761 33.541805 
" clip-path="url(#p2f90adad3f)" style="fill: none; stroke: #000000; stroke-opacity: 0.85; stroke-width: 1.5"/>
    <path d="M 410.415515 33.230749 
L 410.415515 32.045614 
" clip-path="url(#p2f90adad3f)" style="fill: none; stroke: #000000; stroke-opacity: 0.85; stroke-width: 1.5"/>
    <path d="M 476.743419 31.652962 
L 476.743419 31.012075 
" clip-path="url(#p2f90adad3f)" style="fill: none; stroke: #000000; stroke-opacity: 0.85; stroke-width: 1.5"/>
    <path d="M 543.071323 31.089492 
L 543.071323 30.6796 
" clip-path="url(#p2f90adad3f)" style="fill: none; stroke: #000000; stroke-opacity: 0.85; stroke-width: 1.5"/>
    <path d="M 609.399227 30.991216 
L 609.399227 30.620833 
" clip-path="url(#p2f90adad3f)" style="fill: none; stroke: #000000; stroke-opacity: 0.85; stroke-width: 1.5"/>
    <path d="M 675.727131 30.93863 
L 675.727131 30.542551 
" clip-path="url(#p2f90adad3f)" style="fill: none; stroke: #000000; stroke-opacity: 0.85; stroke-width: 1.5"/>
   </g>
   <g id="line2d_33">
    <defs>
     <path id="m26cef000f9" d="M 4 0 
L -4 -0 
" style="stroke: #000000; stroke-opacity: 0.85; stroke-width: 1.5"/>
    </defs>
    <g clip-path="url(#p2f90adad3f)">
     <use xlink:href="#m26cef000f9" x="78.775994" y="80.680075" style="fill-opacity: 0.85; stroke: #000000; stroke-opacity: 0.85; stroke-width: 1.5"/>
     <use xlink:href="#m26cef000f9" x="145.103898" y="62.042255" style="fill-opacity: 0.85; stroke: #000000; stroke-opacity: 0.85; stroke-width: 1.5"/>
     <use xlink:href="#m26cef000f9" x="211.431802" y="46.79096" style="fill-opacity: 0.85; stroke: #000000; stroke-opacity: 0.85; stroke-width: 1.5"/>
     <use xlink:href="#m26cef000f9" x="277.759706" y="40.363659" style="fill-opacity: 0.85; stroke: #000000; stroke-opacity: 0.85; stroke-width: 1.5"/>
     <use xlink:href="#m26cef000f9" x="344.08761" y="35.096866" style="fill-opacity: 0.85; stroke: #000000; stroke-opacity: 0.85; stroke-width: 1.5"/>
     <use xlink:href="#m26cef000f9" x="410.415515" y="33.230749" style="fill-opacity: 0.85; stroke: #000000; stroke-opacity: 0.85; stroke-width: 1.5"/>
     <use xlink:href="#m26cef000f9" x="476.743419" y="31.652962" style="fill-opacity: 0.85; stroke: #000000; stroke-opacity: 0.85; stroke-width: 1.5"/>
     <use xlink:href="#m26cef000f9" x="543.071323" y="31.089492" style="fill-opacity: 0.85; stroke: #000000; stroke-opacity: 0.85; stroke-width: 1.5"/>
     <use xlink:href="#m26cef000f9" x="609.399227" y="30.991216" style="fill-opacity: 0.85; stroke: #000000; stroke-opacity: 0.85; stroke-width: 1.5"/>
     <use xlink:href="#m26cef000f9" x="675.727131" y="30.93863" style="fill-opacity: 0.85; stroke: #000000; stroke-opacity: 0.85; stroke-width: 1.5"/>
    </g>
   </g>
   <g id="line2d_34">
    <g clip-path="url(#p2f90adad3f)">
     <use xlink:href="#m26cef000f9" x="78.775994" y="77.289301" style="fill-opacity: 0.85; stroke: #000000; stroke-opacity: 0.85; stroke-width: 1.5"/>
     <use xlink:href="#m26cef000f9" x="145.103898" y="56.070676" style="fill-opacity: 0.85; stroke: #000000; stroke-opacity: 0.85; stroke-width: 1.5"/>
     <use xlink:href="#m26cef000f9" x="211.431802" y="43.179245" style="fill-opacity: 0.85; stroke: #000000; stroke-opacity: 0.85; stroke-width: 1.5"/>
     <use xlink:href="#m26cef000f9" x="277.759706" y="38.070001" style="fill-opacity: 0.85; stroke: #000000; stroke-opacity: 0.85; stroke-width: 1.5"/>
     <use xlink:href="#m26cef000f9" x="344.08761" y="33.541805" style="fill-opacity: 0.85; stroke: #000000; stroke-opacity: 0.85; stroke-width: 1.5"/>
     <use xlink:href="#m26cef000f9" x="410.415515" y="32.045614" style="fill-opacity: 0.85; stroke: #000000; stroke-opacity: 0.85; stroke-width: 1.5"/>
     <use xlink:href="#m26cef000f9" x="476.743419" y="31.012075" style="fill-opacity: 0.85; stroke: #000000; stroke-opacity: 0.85; stroke-width: 1.5"/>
     <use xlink:href="#m26cef000f9" x="543.071323" y="30.6796" style="fill-opacity: 0.85; stroke: #000000; stroke-opacity: 0.85; stroke-width: 1.5"/>
     <use xlink:href="#m26cef000f9" x="609.399227" y="30.620833" style="fill-opacity: 0.85; stroke: #000000; stroke-opacity: 0.85; stroke-width: 1.5"/>
     <use xlink:href="#m26cef000f9" x="675.727131" y="30.542551" style="fill-opacity: 0.85; stroke: #000000; stroke-opacity: 0.85; stroke-width: 1.5"/>
    </g>
   </g>
   <g id="LineCollection_2">
    <path d="M 78.775994 89.937213 
L 78.775994 78.914769 
" clip-path="url(#p2f90adad3f)" style="fill: none; stroke: #d62728; stroke-opacity: 0.85; stroke-width: 1.5"/>
    <path d="M 145.103898 68.905818 
L 145.103898 61.981631 
" clip-path="url(#p2f90adad3f)" style="fill: none; stroke: #d62728; stroke-opacity: 0.85; stroke-width: 1.5"/>
    <path d="M 211.431802 54.985706 
L 211.431802 48.548415 
" clip-path="url(#p2f90adad3f)" style="fill: none; stroke: #d62728; stroke-opacity: 0.85; stroke-width: 1.5"/>
    <path d="M 277.759706 46.906703 
L 277.759706 42.714949 
" clip-path="url(#p2f90adad3f)" style="fill: none; stroke: #d62728; stroke-opacity: 0.85; stroke-width: 1.5"/>
    <path d="M 344.08761 42.156058 
L 344.08761 40.391458 
" clip-path="url(#p2f90adad3f)" style="fill: none; stroke: #d62728; stroke-opacity: 0.85; stroke-width: 1.5"/>
    <path d="M 410.415515 41.269732 
L 410.415515 38.683933 
" clip-path="url(#p2f90adad3f)" style="fill: none; stroke: #d62728; stroke-opacity: 0.85; stroke-width: 1.5"/>
    <path d="M 476.743419 40.290677 
L 476.743419 37.540747 
" clip-path="url(#p2f90adad3f)" style="fill: none; stroke: #d62728; stroke-opacity: 0.85; stroke-width: 1.5"/>
    <path d="M 543.071323 40.217892 
L 543.071323 36.906118 
" clip-path="url(#p2f90adad3f)" style="fill: none; stroke: #d62728; stroke-opacity: 0.85; stroke-width: 1.5"/>
    <path d="M 609.399227 40.445281 
L 609.399227 37.150339 
" clip-path="url(#p2f90adad3f)" style="fill: none; stroke: #d62728; stroke-opacity: 0.85; stroke-width: 1.5"/>
    <path d="M 675.727131 40.445281 
L 675.727131 37.150339 
" clip-path="url(#p2f90adad3f)" style="fill: none; stroke: #d62728; stroke-opacity: 0.85; stroke-width: 1.5"/>
   </g>
   <g id="line2d_35">
    <defs>
     <path id="mce2dc2404c" d="M 4 0 
L -4 -0 
" style="stroke: #d62728; stroke-opacity: 0.85; stroke-width: 1.5"/>
    </defs>
    <g clip-path="url(#p2f90adad3f)">
     <use xlink:href="#mce2dc2404c" x="78.775994" y="89.937213" style="fill: #d62728; fill-opacity: 0.85; stroke: #d62728; stroke-opacity: 0.85; stroke-width: 1.5"/>
     <use xlink:href="#mce2dc2404c" x="145.103898" y="68.905818" style="fill: #d62728; fill-opacity: 0.85; stroke: #d62728; stroke-opacity: 0.85; stroke-width: 1.5"/>
     <use xlink:href="#mce2dc2404c" x="211.431802" y="54.985706" style="fill: #d62728; fill-opacity: 0.85; stroke: #d62728; stroke-opacity: 0.85; stroke-width: 1.5"/>
     <use xlink:href="#mce2dc2404c" x="277.759706" y="46.906703" style="fill: #d62728; fill-opacity: 0.85; stroke: #d62728; stroke-opacity: 0.85; stroke-width: 1.5"/>
     <use xlink:href="#mce2dc2404c" x="344.08761" y="42.156058" style="fill: #d62728; fill-opacity: 0.85; stroke: #d62728; stroke-opacity: 0.85; stroke-width: 1.5"/>
     <use xlink:href="#mce2dc2404c" x="410.415515" y="41.269732" style="fill: #d62728; fill-opacity: 0.85; stroke: #d62728; stroke-opacity: 0.85; stroke-width: 1.5"/>
     <use xlink:href="#mce2dc2404c" x="476.743419" y="40.290677" style="fill: #d62728; fill-opacity: 0.85; stroke: #d62728; stroke-opacity: 0.85; stroke-width: 1.5"/>
     <use xlink:href="#mce2dc2404c" x="543.071323" y="40.217892" style="fill: #d62728; fill-opacity: 0.85; stroke: #d62728; stroke-opacity: 0.85; stroke-width: 1.5"/>
     <use xlink:href="#mce2dc2404c" x="609.399227" y="40.445281" style="fill: #d62728; fill-opacity: 0.85; stroke: #d62728; stroke-opacity: 0.85; stroke-width: 1.5"/>
     <use xlink:href="#mce2dc2404c" x="675.727131" y="40.445281" style="fill: #d62728; fill-opacity: 0.85; stroke: #d62728; stroke-opacity: 0.85; stroke-width: 1.5"/>
    </g>
   </g>
   <g id="line2d_36">
    <g clip-path="url(#p2f90adad3f)">
     <use xlink:href="#mce2dc2404c" x="78.775994" y="78.914769" style="fill: #d62728; fill-opacity: 0.85; stroke: #d62728; stroke-opacity: 0.85; stroke-width: 1.5"/>
     <use xlink:href="#mce2dc2404c" x="145.103898" y="61.981631" style="fill: #d62728; fill-opacity: 0.85; stroke: #d62728; stroke-opacity: 0.85; stroke-width: 1.5"/>
     <use xlink:href="#mce2dc2404c" x="211.431802" y="48.548415" style="fill: #d62728; fill-opacity: 0.85; stroke: #d62728; stroke-opacity: 0.85; stroke-width: 1.5"/>
     <use xlink:href="#mce2dc2404c" x="277.759706" y="42.714949" style="fill: #d62728; fill-opacity: 0.85; stroke: #d62728; stroke-opacity: 0.85; stroke-width: 1.5"/>
     <use xlink:href="#mce2dc2404c" x="344.08761" y="40.391458" style="fill: #d62728; fill-opacity: 0.85; stroke: #d62728; stroke-opacity: 0.85; stroke-width: 1.5"/>
     <use xlink:href="#mce2dc2404c" x="410.415515" y="38.683933" style="fill: #d62728; fill-opacity: 0.85; stroke: #d62728; stroke-opacity: 0.85; stroke-width: 1.5"/>
     <use xlink:href="#mce2dc2404c" x="476.743419" y="37.540747" style="fill: #d62728; fill-opacity: 0.85; stroke: #d62728; stroke-opacity: 0.85; stroke-width: 1.5"/>
     <use xlink:href="#mce2dc2404c" x="543.071323" y="36.906118" style="fill: #d62728; fill-opacity: 0.85; stroke: #d62728; stroke-opacity: 0.85; stroke-width: 1.5"/>
     <use xlink:href="#mce2dc2404c" x="609.399227" y="37.150339" style="fill: #d62728; fill-opacity: 0.85; stroke: #d62728; stroke-opacity: 0.85; stroke-width: 1.5"/>
     <use xlink:href="#mce2dc2404c" x="675.727131" y="37.150339" style="fill: #d62728; fill-opacity: 0.85; stroke: #d62728; stroke-opacity: 0.85; stroke-width: 1.5"/>
    </g>
   </g>
   <g id="LineCollection_3">
    <path d="M 78.775994 416.85176 
L 78.775994 388.158842 
" clip-path="url(#p2f90adad3f)" style="fill: none; stroke: #1f77b4; stroke-opacity: 0.85; stroke-width: 1.5"/>
    <path d="M 145.103898 405.737006 
L 145.103898 367.278447 
" clip-path="url(#p2f90adad3f)" style="fill: none; stroke: #1f77b4; stroke-opacity: 0.85; stroke-width: 1.5"/>
    <path d="M 211.431802 391.935557 
L 211.431802 360.624788 
" clip-path="url(#p2f90adad3f)" style="fill: none; stroke: #1f77b4; stroke-opacity: 0.85; stroke-width: 1.5"/>
    <path d="M 277.759706 388.198227 
L 277.759706 352.262201 
" clip-path="url(#p2f90adad3f)" style="fill: none; stroke: #1f77b4; stroke-opacity: 0.85; stroke-width: 1.5"/>
    <path d="M 344.08761 379.650862 
L 344.08761 346.638224 
" clip-path="url(#p2f90adad3f)" style="fill: none; stroke: #1f77b4; stroke-opacity: 0.85; stroke-width: 1.5"/>
    <path d="M 410.415515 373.956531 
L 410.415515 339.300481 
" clip-path="url(#p2f90adad3f)" style="fill: none; stroke: #1f77b4; stroke-opacity: 0.85; stroke-width: 1.5"/>
    <path d="M 476.743419 370.480954 
L 476.743419 332.692401 
" clip-path="url(#p2f90adad3f)" style="fill: none; stroke: #1f77b4; stroke-opacity: 0.85; stroke-width: 1.5"/>
    <path d="M 543.071323 366.305353 
L 543.071323 326.062835 
" clip-path="url(#p2f90adad3f)" style="fill: none; stroke: #1f77b4; stroke-opacity: 0.85; stroke-width: 1.5"/>
    <path d="M 609.399227 361.709823 
L 609.399227 320.867277 
" clip-path="url(#p2f90adad3f)" style="fill: none; stroke: #1f77b4; stroke-opacity: 0.85; stroke-width: 1.5"/>
    <path d="M 675.727131 357.158134 
L 675.727131 316.315588 
" clip-path="url(#p2f90adad3f)" style="fill: none; stroke: #1f77b4; stroke-opacity: 0.85; stroke-width: 1.5"/>
   </g>
   <g id="line2d_37">
    <defs>
     <path id="mb00dba6602" d="M 4 0 
L -4 -0 
" style="stroke: #1f77b4; stroke-opacity: 0.85; stroke-width: 1.5"/>
    </defs>
    <g clip-path="url(#p2f90adad3f)">
     <use xlink:href="#mb00dba6602" x="78.775994" y="416.85176" style="fill: #1f77b4; fill-opacity: 0.85; stroke: #1f77b4; stroke-opacity: 0.85; stroke-width: 1.5"/>
     <use xlink:href="#mb00dba6602" x="145.103898" y="405.737006" style="fill: #1f77b4; fill-opacity: 0.85; stroke: #1f77b4; stroke-opacity: 0.85; stroke-width: 1.5"/>
     <use xlink:href="#mb00dba6602" x="211.431802" y="391.935557" style="fill: #1f77b4; fill-opacity: 0.85; stroke: #1f77b4; stroke-opacity: 0.85; stroke-width: 1.5"/>
     <use xlink:href="#mb00dba6602" x="277.759706" y="388.198227" style="fill: #1f77b4; fill-opacity: 0.85; stroke: #1f77b4; stroke-opacity: 0.85; stroke-width: 1.5"/>
     <use xlink:href="#mb00dba6602" x="344.08761" y="379.650862" style="fill: #1f77b4; fill-opacity: 0.85; stroke: #1f77b4; stroke-opacity: 0.85; stroke-width: 1.5"/>
     <use xlink:href="#mb00dba6602" x="410.415515" y="373.956531" style="fill: #1f77b4; fill-opacity: 0.85; stroke: #1f77b4; stroke-opacity: 0.85; stroke-width: 1.5"/>
     <use xlink:href="#mb00dba6602" x="476.743419" y="370.480954" style="fill: #1f77b4; fill-opacity: 0.85; stroke: #1f77b4; stroke-opacity: 0.85; stroke-width: 1.5"/>
     <use xlink:href="#mb00dba6602" x="543.071323" y="366.305353" style="fill: #1f77b4; fill-opacity: 0.85; stroke: #1f77b4; stroke-opacity: 0.85; stroke-width: 1.5"/>
     <use xlink:href="#mb00dba6602" x="609.399227" y="361.709823" style="fill: #1f77b4; fill-opacity: 0.85; stroke: #1f77b4; stroke-opacity: 0.85; stroke-width: 1.5"/>
     <use xlink:href="#mb00dba6602" x="675.727131" y="357.158134" style="fill: #1f77b4; fill-opacity: 0.85; stroke: #1f77b4; stroke-opacity: 0.85; stroke-width: 1.5"/>
    </g>
   </g>
   <g id="line2d_38">
    <g clip-path="url(#p2f90adad3f)">
     <use xlink:href="#mb00dba6602" x="78.775994" y="388.158842" style="fill: #1f77b4; fill-opacity: 0.85; stroke: #1f77b4; stroke-opacity: 0.85; stroke-width: 1.5"/>
     <use xlink:href="#mb00dba6602" x="145.103898" y="367.278447" style="fill: #1f77b4; fill-opacity: 0.85; stroke: #1f77b4; stroke-opacity: 0.85; stroke-width: 1.5"/>
     <use xlink:href="#mb00dba6602" x="211.431802" y="360.624788" style="fill: #1f77b4; fill-opacity: 0.85; stroke: #1f77b4; stroke-opacity: 0.85; stroke-width: 1.5"/>
     <use xlink:href="#mb00dba6602" x="277.759706" y="352.262201" style="fill: #1f77b4; fill-opacity: 0.85; stroke: #1f77b4; stroke-opacity: 0.85; stroke-width: 1.5"/>
     <use xlink:href="#mb00dba6602" x="344.08761" y="346.638224" style="fill: #1f77b4; fill-opacity: 0.85; stroke: #1f77b4; stroke-opacity: 0.85; stroke-width: 1.5"/>
     <use xlink:href="#mb00dba6602" x="410.415515" y="339.300481" style="fill: #1f77b4; fill-opacity: 0.85; stroke: #1f77b4; stroke-opacity: 0.85; stroke-width: 1.5"/>
     <use xlink:href="#mb00dba6602" x="476.743419" y="332.692401" style="fill: #1f77b4; fill-opacity: 0.85; stroke: #1f77b4; stroke-opacity: 0.85; stroke-width: 1.5"/>
     <use xlink:href="#mb00dba6602" x="543.071323" y="326.062835" style="fill: #1f77b4; fill-opacity: 0.85; stroke: #1f77b4; stroke-opacity: 0.85; stroke-width: 1.5"/>
     <use xlink:href="#mb00dba6602" x="609.399227" y="320.867277" style="fill: #1f77b4; fill-opacity: 0.85; stroke: #1f77b4; stroke-opacity: 0.85; stroke-width: 1.5"/>
     <use xlink:href="#mb00dba6602" x="675.727131" y="316.315588" style="fill: #1f77b4; fill-opacity: 0.85; stroke: #1f77b4; stroke-opacity: 0.85; stroke-width: 1.5"/>
    </g>
   </g>
   <g id="line2d_39">
    <path d="M 78.775994 78.984688 
L 145.103898 59.056465 
L 211.431802 44.985102 
L 277.759706 39.21683 
L 344.08761 34.319335 
L 410.415515 32.638181 
L 476.743419 31.332518 
L 543.071323 30.884546 
L 609.399227 30.806025 
L 675.727131 30.740591 
" clip-path="url(#p2f90adad3f)" style="fill: none; stroke: #000000; stroke-opacity: 0.85; stroke-width: 1.5; stroke-linecap: square"/>
    <defs>
     <path id="mdfbdc1ee3c" d="M 0 3 
C 0.795609 3 1.55874 2.683901 2.12132 2.12132 
C 2.683901 1.55874 3 0.795609 3 0 
C 3 -0.795609 2.683901 -1.55874 2.12132 -2.12132 
C 1.55874 -2.683901 0.795609 -3 0 -3 
C -0.795609 -3 -1.55874 -2.683901 -2.12132 -2.12132 
C -2.683901 -1.55874 -3 -0.795609 -3 0 
C -3 0.795609 -2.683901 1.55874 -2.12132 2.12132 
C -1.55874 2.683901 -0.795609 3 0 3 
z
" style="stroke: #000000; stroke-opacity: 0.85"/>
    </defs>
    <g clip-path="url(#p2f90adad3f)">
     <use xlink:href="#mdfbdc1ee3c" x="78.775994" y="78.984688" style="fill-opacity: 0.85; stroke: #000000; stroke-opacity: 0.85"/>
     <use xlink:href="#mdfbdc1ee3c" x="145.103898" y="59.056465" style="fill-opacity: 0.85; stroke: #000000; stroke-opacity: 0.85"/>
     <use xlink:href="#mdfbdc1ee3c" x="211.431802" y="44.985102" style="fill-opacity: 0.85; stroke: #000000; stroke-opacity: 0.85"/>
     <use xlink:href="#mdfbdc1ee3c" x="277.759706" y="39.21683" style="fill-opacity: 0.85; stroke: #000000; stroke-opacity: 0.85"/>
     <use xlink:href="#mdfbdc1ee3c" x="344.08761" y="34.319335" style="fill-opacity: 0.85; stroke: #000000; stroke-opacity: 0.85"/>
     <use xlink:href="#mdfbdc1ee3c" x="410.415515" y="32.638181" style="fill-opacity: 0.85; stroke: #000000; stroke-opacity: 0.85"/>
     <use xlink:href="#mdfbdc1ee3c" x="476.743419" y="31.332518" style="fill-opacity: 0.85; stroke: #000000; stroke-opacity: 0.85"/>
     <use xlink:href="#mdfbdc1ee3c" x="543.071323" y="30.884546" style="fill-opacity: 0.85; stroke: #000000; stroke-opacity: 0.85"/>
     <use xlink:href="#mdfbdc1ee3c" x="609.399227" y="30.806025" style="fill-opacity: 0.85; stroke: #000000; stroke-opacity: 0.85"/>
     <use xlink:href="#mdfbdc1ee3c" x="675.727131" y="30.740591" style="fill-opacity: 0.85; stroke: #000000; stroke-opacity: 0.85"/>
    </g>
   </g>
   <g id="line2d_40">
    <path d="M 78.775994 84.425991 
L 145.103898 65.443724 
L 211.431802 51.76706 
L 277.759706 44.810826 
L 344.08761 41.273758 
L 410.415515 39.976833 
L 476.743419 38.915712 
L 543.071323 38.562005 
L 609.399227 38.79781 
L 675.727131 38.79781 
" clip-path="url(#p2f90adad3f)" style="fill: none; stroke-dasharray: 5.55,2.4; stroke-dashoffset: 0; stroke: #d62728; stroke-opacity: 0.85; stroke-width: 1.5"/>
    <defs>
     <path id="m24281849df" d="M -3 3 
L 3 3 
L 3 -3 
L -3 -3 
z
" style="stroke: #d62728; stroke-opacity: 0.85; stroke-linejoin: miter"/>
    </defs>
    <g clip-path="url(#p2f90adad3f)">
     <use xlink:href="#m24281849df" x="78.775994" y="84.425991" style="fill: #d62728; fill-opacity: 0.85; stroke: #d62728; stroke-opacity: 0.85; stroke-linejoin: miter"/>
     <use xlink:href="#m24281849df" x="145.103898" y="65.443724" style="fill: #d62728; fill-opacity: 0.85; stroke: #d62728; stroke-opacity: 0.85; stroke-linejoin: miter"/>
     <use xlink:href="#m24281849df" x="211.431802" y="51.76706" style="fill: #d62728; fill-opacity: 0.85; stroke: #d62728; stroke-opacity: 0.85; stroke-linejoin: miter"/>
     <use xlink:href="#m24281849df" x="277.759706" y="44.810826" style="fill: #d62728; fill-opacity: 0.85; stroke: #d62728; stroke-opacity: 0.85; stroke-linejoin: miter"/>
     <use xlink:href="#m24281849df" x="344.08761" y="41.273758" style="fill: #d62728; fill-opacity: 0.85; stroke: #d62728; stroke-opacity: 0.85; stroke-linejoin: miter"/>
     <use xlink:href="#m24281849df" x="410.415515" y="39.976833" style="fill: #d62728; fill-opacity: 0.85; stroke: #d62728; stroke-opacity: 0.85; stroke-linejoin: miter"/>
     <use xlink:href="#m24281849df" x="476.743419" y="38.915712" style="fill: #d62728; fill-opacity: 0.85; stroke: #d62728; stroke-opacity: 0.85; stroke-linejoin: miter"/>
     <use xlink:href="#m24281849df" x="543.071323" y="38.562005" style="fill: #d62728; fill-opacity: 0.85; stroke: #d62728; stroke-opacity: 0.85; stroke-linejoin: miter"/>
     <use xlink:href="#m24281849df" x="609.399227" y="38.79781" style="fill: #d62728; fill-opacity: 0.85; stroke: #d62728; stroke-opacity: 0.85; stroke-linejoin: miter"/>
     <use xlink:href="#m24281849df" x="675.727131" y="38.79781" style="fill: #d62728; fill-opacity: 0.85; stroke: #d62728; stroke-opacity: 0.85; stroke-linejoin: miter"/>
    </g>
   </g>
   <g id="line2d_41">
    <path d="M 78.775994 402.505301 
L 145.103898 386.507726 
L 211.431802 376.280172 
L 277.759706 370.230214 
L 344.08761 363.144543 
L 410.415515 356.628506 
L 476.743419 351.586678 
L 543.071323 346.184094 
L 609.399227 341.28855 
L 675.727131 336.736861 
" clip-path="url(#p2f90adad3f)" style="fill: none; stroke-dasharray: 5.55,2.4; stroke-dashoffset: 0; stroke: #1f77b4; stroke-opacity: 0.85; stroke-width: 1.5"/>
    <defs>
     <path id="m83e1347fbc" d="M 0 -3 
L -3 3 
L 3 3 
z
" style="stroke: #1f77b4; stroke-opacity: 0.85; stroke-linejoin: miter"/>
    </defs>
    <g clip-path="url(#p2f90adad3f)">
     <use xlink:href="#m83e1347fbc" x="78.775994" y="402.505301" style="fill: #1f77b4; fill-opacity: 0.85; stroke: #1f77b4; stroke-opacity: 0.85; stroke-linejoin: miter"/>
     <use xlink:href="#m83e1347fbc" x="145.103898" y="386.507726" style="fill: #1f77b4; fill-opacity: 0.85; stroke: #1f77b4; stroke-opacity: 0.85; stroke-linejoin: miter"/>
     <use xlink:href="#m83e1347fbc" x="211.431802" y="376.280172" style="fill: #1f77b4; fill-opacity: 0.85; stroke: #1f77b4; stroke-opacity: 0.85; stroke-linejoin: miter"/>
     <use xlink:href="#m83e1347fbc" x="277.759706" y="370.230214" style="fill: #1f77b4; fill-opacity: 0.85; stroke: #1f77b4; stroke-opacity: 0.85; stroke-linejoin: miter"/>
     <use xlink:href="#m83e1347fbc" x="344.08761" y="363.144543" style="fill: #1f77b4; fill-opacity: 0.85; stroke: #1f77b4; stroke-opacity: 0.85; stroke-linejoin: miter"/>
     <use xlink:href="#m83e1347fbc" x="410.415515" y="356.628506" style="fill: #1f77b4; fill-opacity: 0.85; stroke: #1f77b4; stroke-opacity: 0.85; stroke-linejoin: miter"/>
     <use xlink:href="#m83e1347fbc" x="476.743419" y="351.586678" style="fill: #1f77b4; fill-opacity: 0.85; stroke: #1f77b4; stroke-opacity: 0.85; stroke-linejoin: miter"/>
     <use xlink:href="#m83e1347fbc" x="543.071323" y="346.184094" style="fill: #1f77b4; fill-opacity: 0.85; stroke: #1f77b4; stroke-opacity: 0.85; stroke-linejoin: miter"/>
     <use xlink:href="#m83e1347fbc" x="609.399227" y="341.28855" style="fill: #1f77b4; fill-opacity: 0.85; stroke: #1f77b4; stroke-opacity: 0.85; stroke-linejoin: miter"/>
     <use xlink:href="#m83e1347fbc" x="675.727131" y="336.736861" style="fill: #1f77b4; fill-opacity: 0.85; stroke: #1f77b4; stroke-opacity: 0.85; stroke-linejoin: miter"/>
    </g>
   </g>
   <g id="patch_3">
    <path d="M 48.928438 455.17 
L 48.928438 7.2 
" style="fill: none; stroke: #000000; stroke-width: 0.8; stroke-linejoin: miter; stroke-linecap: square"/>
   </g>
   <g id="patch_4">
    <path d="M 705.574687 455.17 
L 705.574687 7.2 
" style="fill: none; stroke: #000000; stroke-width: 0.8; stroke-linejoin: miter; stroke-linecap: square"/>
   </g>
   <g id="patch_5">
    <path d="M 48.928438 455.17 
L 705.574687 455.17 
" style="fill: none; stroke: #000000; stroke-width: 0.8; stroke-linejoin: miter; stroke-linecap: square"/>
   </g>
   <g id="patch_6">
    <path d="M 48.928438 7.2 
L 705.574687 7.2 
" style="fill: none; stroke: #000000; stroke-width: 0.8; stroke-linejoin: miter; stroke-linecap: square"/>
   </g>
   <g id="legend_1">
    <g id="patch_7">
     <path d="M 542.964844 451.67 
L 699.874687 451.67 
Q 702.074687 451.67 702.074687 449.47 
L 702.074687 398.930156 
Q 702.074687 396.730156 699.874687 396.730156 
L 542.964844 396.730156 
Q 540.764844 396.730156 540.764844 398.930156 
L 540.764844 449.47 
Q 540.764844 451.67 542.964844 451.67 
z
" style="fill: #4d4d4d; opacity: 0.5; stroke: #4d4d4d; stroke-linejoin: miter"/>
    </g>
    <g id="patch_8">
     <path d="M 540.964844 449.67 
L 697.874687 449.67 
Q 700.074687 449.67 700.074687 447.47 
L 700.074687 396.930156 
Q 700.074687 394.730156 697.874687 394.730156 
L 540.964844 394.730156 
Q 538.764844 394.730156 538.764844 396.930156 
L 538.764844 447.47 
Q 538.764844 449.67 540.964844 449.67 
z
" style="fill: #ffffff; stroke: #000000; stroke-linejoin: miter"/>
    </g>
    <g id="LineCollection_4">
     <path d="M 554.164844 410.066562 
L 554.164844 399.066562 
" style="fill: none; stroke: #000000; stroke-opacity: 0.85; stroke-width: 1.5"/>
    </g>
    <g id="line2d_42">
     <g>
      <use xlink:href="#m26cef000f9" x="554.164844" y="410.066562" style="fill-opacity: 0.85; stroke: #000000; stroke-opacity: 0.85; stroke-width: 1.5"/>
     </g>
    </g>
    <g id="line2d_43">
     <g>
      <use xlink:href="#m26cef000f9" x="554.164844" y="399.066562" style="fill-opacity: 0.85; stroke: #000000; stroke-opacity: 0.85; stroke-width: 1.5"/>
     </g>
    </g>
    <g id="line2d_44">
     <path d="M 543.164844 404.566562 
L 565.164844 404.566562 
" style="fill: none; stroke: #000000; stroke-opacity: 0.85; stroke-width: 1.5; stroke-linecap: square"/>
    </g>
    <g id="line2d_45">
     <g>
      <use xlink:href="#mdfbdc1ee3c" x="554.164844" y="404.566562" style="fill-opacity: 0.85; stroke: #000000; stroke-opacity: 0.85"/>
     </g>
    </g>
    <g id="text_19">
     <!-- Training (均值 ± 误差) -->
     <g transform="translate(573.964844 408.416562) scale(0.11 -0.11)">
      <defs>
       <path id="MicrosoftYaHei-54" d="M 3550 4284 
L 2153 4284 
L 2153 0 
L 1525 0 
L 1525 4284 
L 134 4284 
L 134 4841 
L 3550 4841 
L 3550 4284 
z
" transform="scale(0.015625)"/>
       <path id="MicrosoftYaHei-72" d="M 2400 2850 
Q 2247 2959 1978 2959 
Q 1622 2959 1390 2626 
Q 1159 2294 1159 1750 
L 1159 0 
L 547 0 
L 547 3456 
L 1159 3456 
L 1159 2753 
L 1172 2753 
Q 1434 3516 2078 3516 
Q 2288 3516 2400 3469 
L 2400 2850 
z
" transform="scale(0.015625)"/>
       <path id="MicrosoftYaHei-61" d="M 628 3216 
Q 1144 3538 1819 3538 
Q 3069 3538 3069 2225 
L 3069 0 
L 2463 0 
L 2463 534 
L 2447 534 
Q 2088 -81 1388 -81 
Q 884 -81 587 191 
Q 291 463 291 925 
Q 291 1894 1438 2053 
L 2463 2197 
Q 2463 3044 1763 3044 
Q 1141 3044 628 2625 
L 628 3216 
z
M 1653 1625 
Q 1228 1569 1067 1412 
Q 906 1256 906 975 
Q 906 728 1081 572 
Q 1256 416 1544 416 
Q 1944 416 2203 697 
Q 2463 978 2463 1403 
L 2463 1734 
L 1653 1625 
z
" transform="scale(0.015625)"/>
       <path id="MicrosoftYaHei-69" d="M 472 4675 
Q 472 4838 583 4948 
Q 694 5059 856 5059 
Q 1022 5059 1136 4950 
Q 1250 4841 1250 4675 
Q 1250 4513 1136 4405 
Q 1022 4297 856 4297 
Q 691 4297 581 4405 
Q 472 4513 472 4675 
z
M 544 0 
L 544 3456 
L 1156 3456 
L 1156 0 
L 544 0 
z
" transform="scale(0.015625)"/>
       <path id="MicrosoftYaHei-6e" d="M 3469 0 
L 2859 0 
L 2859 1966 
Q 2859 3031 2081 3031 
Q 1678 3031 1418 2731 
Q 1159 2431 1159 1972 
L 1159 0 
L 547 0 
L 547 3456 
L 1159 3456 
L 1159 2884 
L 1172 2884 
Q 1563 3538 2306 3538 
Q 2875 3538 3172 3173 
Q 3469 2809 3469 2113 
L 3469 0 
z
" transform="scale(0.015625)"/>
       <path id="MicrosoftYaHei-67" d="M 3547 291 
Q 3547 -1628 1684 -1628 
Q 1041 -1628 566 -1388 
L 566 -797 
Q 1144 -1119 1675 -1119 
Q 2934 -1119 2934 206 
L 2934 572 
L 2922 572 
Q 2528 -81 1747 -81 
Q 1097 -81 706 384 
Q 316 850 316 1619 
Q 316 2503 747 3020 
Q 1178 3538 1897 3538 
Q 2588 3538 2922 2988 
L 2934 2988 
L 2934 3456 
L 3547 3456 
L 3547 291 
z
M 2934 2056 
Q 2938 2456 2666 2743 
Q 2394 3031 1997 3031 
Q 1497 3031 1219 2664 
Q 941 2297 941 1656 
Q 941 1106 1209 765 
Q 1478 425 1922 425 
Q 2369 425 2653 750 
Q 2938 1075 2934 1575 
L 2934 2056 
z
" transform="scale(0.015625)"/>
       <path id="MicrosoftYaHei-20" transform="scale(0.015625)"/>
       <path id="MicrosoftYaHei-28" d="M 1531 -1100 
Q 478 100 478 1847 
Q 478 3594 1531 4841 
L 2072 4841 
Q 1016 3544 1016 1853 
Q 1016 166 2066 -1100 
L 1531 -1100 
z
" transform="scale(0.015625)"/>
       <path id="MicrosoftYaHei-5747" d="M 2244 2803 
Q 2931 3953 3338 5322 
L 3838 5172 
Q 3691 4744 3531 4347 
L 6013 4347 
Q 5925 1053 5875 297 
Q 5831 -697 4806 -697 
Q 4188 -697 3706 -672 
Q 3669 -422 3606 -141 
L 3625 -141 
Q 4250 -209 4775 -209 
Q 5350 -209 5394 378 
Q 5456 1447 5513 3891 
L 3341 3891 
Q 3028 3172 2675 2572 
Q 2481 2691 2244 2803 
z
M 81 428 
Q 559 600 1006 769 
L 1006 3253 
L 169 3253 
L 169 3697 
L 1006 3697 
L 1006 5259 
L 1469 5259 
L 1469 3697 
L 2281 3697 
L 2281 3253 
L 1469 3253 
L 1469 947 
Q 1922 1125 2338 1303 
Q 2350 991 2369 784 
Q 1363 403 250 -53 
L 81 428 
z
M 2513 853 
Q 3769 1353 5119 1934 
Q 5150 1641 5188 1434 
Q 4031 947 2706 359 
L 2513 853 
z
M 3138 2909 
L 3481 3216 
Q 4025 2716 4531 2216 
L 4125 1859 
Q 3644 2409 3138 2909 
z
" transform="scale(0.015625)"/>
       <path id="MicrosoftYaHei-503c" d="M 1619 -216 
L 2250 -216 
L 2250 3653 
L 3725 3653 
L 3725 4222 
L 1913 4222 
L 1913 4647 
L 3725 4647 
L 3725 5309 
L 4200 5309 
L 4200 4647 
L 6169 4647 
L 6169 4222 
L 4200 4222 
L 4200 3653 
L 5713 3653 
L 5713 -216 
L 6306 -216 
L 6306 -641 
L 1619 -641 
L 1619 -216 
z
M 69 2247 
Q 906 3497 1369 5278 
L 1831 5141 
Q 1581 4334 1288 3628 
L 1288 -816 
L 831 -816 
L 831 2666 
Q 563 2166 263 1734 
Q 175 1997 69 2247 
z
M 2713 -216 
L 5250 -216 
L 5250 353 
L 2713 353 
L 2713 -216 
z
M 5250 3241 
L 2713 3241 
L 2713 2678 
L 5250 2678 
L 5250 3241 
z
M 2713 1716 
L 5250 1716 
L 5250 2278 
L 2713 2278 
L 2713 1716 
z
M 2713 753 
L 5250 753 
L 5250 1316 
L 2713 1316 
L 2713 753 
z
" transform="scale(0.015625)"/>
       <path id="MicrosoftYaHei-b1" d="M 3972 2216 
L 2613 2216 
L 2613 859 
L 2147 859 
L 2147 2216 
L 788 2216 
L 788 2691 
L 2147 2691 
L 2147 4047 
L 2613 4047 
L 2613 2691 
L 3972 2691 
L 3972 2216 
z
M 3972 0 
L 788 0 
L 788 475 
L 3972 475 
L 3972 0 
z
" transform="scale(0.015625)"/>
       <path id="MicrosoftYaHei-8bef" d="M 1819 1484 
L 3706 1484 
Q 3750 1769 3756 2222 
L 2044 2222 
L 2044 2659 
L 6069 2659 
L 6069 2222 
L 4244 2222 
Q 4234 1753 4203 1484 
L 6288 1484 
L 6288 1047 
L 4356 1047 
Q 4913 -53 6363 -359 
Q 6138 -628 5981 -828 
Q 4538 -406 3984 850 
Q 3569 -272 1969 -847 
Q 1819 -653 1631 -441 
Q 3188 53 3588 1047 
L 1819 1047 
L 1819 1484 
z
M 2325 5034 
L 5750 5034 
L 5750 2991 
L 5275 2991 
L 5275 3272 
L 2800 3272 
L 2800 2991 
L 2325 2991 
L 2325 5034 
z
M 2044 784 
Q 2063 459 2088 247 
Q 1294 -272 925 -584 
L 631 -166 
Q 844 9 844 378 
L 844 2716 
L 100 2716 
L 100 3166 
L 1325 3166 
L 1325 284 
Q 1763 578 2044 784 
z
M 5275 4616 
L 2800 4616 
L 2800 3691 
L 5275 3691 
L 5275 4616 
z
M 831 5153 
Q 1281 4697 1725 4184 
L 1294 3822 
Q 881 4347 450 4822 
L 831 5153 
z
" transform="scale(0.015625)"/>
       <path id="MicrosoftYaHei-5dee" d="M 1094 -172 
L 3419 -172 
L 3419 891 
L 1813 891 
L 1813 1088 
Q 1200 394 331 -197 
Q 206 3 31 247 
Q 1213 1028 1859 1984 
L 200 1984 
L 200 2409 
L 2119 2409 
Q 2275 2694 2409 3028 
L 638 3028 
L 638 3447 
L 2569 3447 
Q 2666 3728 2750 4041 
L 488 4041 
L 488 4466 
L 2075 4466 
Q 1813 4797 1513 5122 
L 1869 5397 
Q 2231 5047 2563 4672 
L 2278 4466 
L 4219 4466 
L 3975 4684 
Q 4344 5047 4631 5403 
L 5056 5122 
Q 4738 4772 4413 4466 
L 6050 4466 
L 6050 4041 
L 3291 4041 
Q 3206 3731 3109 3447 
L 5813 3447 
L 5813 3028 
L 2963 3028 
Q 2838 2700 2697 2409 
L 6294 2409 
L 6294 1984 
L 2469 1984 
Q 2259 1634 1997 1309 
L 5613 1309 
L 5613 891 
L 3925 891 
L 3925 -172 
L 6213 -172 
L 6213 -597 
L 1094 -597 
L 1094 -172 
z
" transform="scale(0.015625)"/>
       <path id="MicrosoftYaHei-29" d="M 78 -1100 
Q 1131 163 1131 1853 
Q 1131 3547 72 4841 
L 616 4841 
Q 1672 3603 1672 1847 
Q 1672 91 616 -1100 
L 78 -1100 
z
" transform="scale(0.015625)"/>
      </defs>
      <use xlink:href="#MicrosoftYaHei-54"/>
      <use xlink:href="#MicrosoftYaHei-72" transform="translate(47.949219 0)"/>
      <use xlink:href="#MicrosoftYaHei-61" transform="translate(86.132812 0)"/>
      <use xlink:href="#MicrosoftYaHei-69" transform="translate(141.40625 0)"/>
      <use xlink:href="#MicrosoftYaHei-6e" transform="translate(168.017578 0)"/>
      <use xlink:href="#MicrosoftYaHei-69" transform="translate(229.638672 0)"/>
      <use xlink:href="#MicrosoftYaHei-6e" transform="translate(256.25 0)"/>
      <use xlink:href="#MicrosoftYaHei-67" transform="translate(317.871094 0)"/>
      <use xlink:href="#MicrosoftYaHei-20" transform="translate(381.835938 0)"/>
      <use xlink:href="#MicrosoftYaHei-28" transform="translate(411.425781 0)"/>
      <use xlink:href="#MicrosoftYaHei-5747" transform="translate(444.824219 0)"/>
      <use xlink:href="#MicrosoftYaHei-503c" transform="translate(544.824219 0)"/>
      <use xlink:href="#MicrosoftYaHei-20" transform="translate(644.824219 0)"/>
      <use xlink:href="#MicrosoftYaHei-b1" transform="translate(674.414062 0)"/>
      <use xlink:href="#MicrosoftYaHei-20" transform="translate(748.583984 0)"/>
      <use xlink:href="#MicrosoftYaHei-8bef" transform="translate(778.173828 0)"/>
      <use xlink:href="#MicrosoftYaHei-5dee" transform="translate(878.173828 0)"/>
      <use xlink:href="#MicrosoftYaHei-29" transform="translate(978.173828 0)"/>
     </g>
    </g>
    <g id="LineCollection_5">
     <path d="M 554.164844 427.157812 
L 554.164844 416.157812 
" style="fill: none; stroke: #d62728; stroke-opacity: 0.85; stroke-width: 1.5"/>
    </g>
    <g id="line2d_46">
     <g>
      <use xlink:href="#mce2dc2404c" x="554.164844" y="427.157812" style="fill: #d62728; fill-opacity: 0.85; stroke: #d62728; stroke-opacity: 0.85; stroke-width: 1.5"/>
     </g>
    </g>
    <g id="line2d_47">
     <g>
      <use xlink:href="#mce2dc2404c" x="554.164844" y="416.157812" style="fill: #d62728; fill-opacity: 0.85; stroke: #d62728; stroke-opacity: 0.85; stroke-width: 1.5"/>
     </g>
    </g>
    <g id="line2d_48">
     <path d="M 543.164844 421.657812 
L 565.164844 421.657812 
" style="fill: none; stroke-dasharray: 5.55,2.4; stroke-dashoffset: 0; stroke: #d62728; stroke-opacity: 0.85; stroke-width: 1.5"/>
    </g>
    <g id="line2d_49">
     <g>
      <use xlink:href="#m24281849df" x="554.164844" y="421.657812" style="fill: #d62728; fill-opacity: 0.85; stroke: #d62728; stroke-opacity: 0.85; stroke-linejoin: miter"/>
     </g>
    </g>
    <g id="text_20">
     <!-- Validation (均值 ± 误差) -->
     <g transform="translate(573.964844 425.507812) scale(0.11 -0.11)">
      <defs>
       <path id="MicrosoftYaHei-56" d="M 4272 4841 
L 2494 0 
L 1800 0 
L 56 4841 
L 750 4841 
L 2053 1056 
Q 2119 869 2150 622 
L 2166 622 
Q 2191 838 2275 1063 
L 3603 4841 
L 4272 4841 
z
" transform="scale(0.015625)"/>
       <path id="MicrosoftYaHei-6c" d="M 544 0 
L 544 5116 
L 1156 5116 
L 1156 0 
L 544 0 
z
" transform="scale(0.015625)"/>
       <path id="MicrosoftYaHei-64" d="M 3547 0 
L 2934 0 
L 2934 575 
L 2922 575 
Q 2544 -81 1747 -81 
Q 1091 -81 703 386 
Q 316 853 316 1647 
Q 316 2503 753 3020 
Q 1191 3538 1897 3538 
Q 2603 3538 2922 2988 
L 2934 2988 
L 2934 5116 
L 3547 5116 
L 3547 0 
z
M 2938 2056 
Q 2938 2472 2664 2751 
Q 2391 3031 1991 3031 
Q 1503 3031 1222 2667 
Q 941 2303 941 1675 
Q 941 1097 1211 761 
Q 1481 425 1931 425 
Q 2375 425 2656 754 
Q 2938 1084 2938 1575 
L 2938 2056 
z
" transform="scale(0.015625)"/>
       <path id="MicrosoftYaHei-74" d="M 2206 34 
Q 2006 -75 1666 -75 
Q 738 -75 738 953 
L 738 2950 
L 144 2950 
L 144 3456 
L 738 3456 
L 738 4288 
L 1347 4481 
L 1347 3456 
L 2206 3456 
L 2206 2950 
L 1347 2950 
L 1347 1063 
Q 1347 722 1462 575 
Q 1578 428 1847 428 
Q 2053 428 2206 544 
L 2206 34 
z
" transform="scale(0.015625)"/>
       <path id="MicrosoftYaHei-6f" d="M 316 1691 
Q 316 2547 794 3042 
Q 1272 3538 2091 3538 
Q 2869 3538 3311 3061 
Q 3753 2584 3753 1744 
Q 3753 925 3281 422 
Q 2809 -81 2016 -81 
Q 1241 -81 778 406 
Q 316 894 316 1691 
z
M 941 1709 
Q 941 1113 1242 769 
Q 1544 425 2053 425 
Q 2578 425 2853 761 
Q 3128 1097 3128 1725 
Q 3128 2356 2853 2693 
Q 2578 3031 2053 3031 
Q 1538 3031 1239 2678 
Q 941 2325 941 1709 
z
" transform="scale(0.015625)"/>
      </defs>
      <use xlink:href="#MicrosoftYaHei-56"/>
      <use xlink:href="#MicrosoftYaHei-61" transform="translate(59.876953 0)"/>
      <use xlink:href="#MicrosoftYaHei-6c" transform="translate(115.150391 0)"/>
      <use xlink:href="#MicrosoftYaHei-69" transform="translate(141.761719 0)"/>
      <use xlink:href="#MicrosoftYaHei-64" transform="translate(168.373047 0)"/>
      <use xlink:href="#MicrosoftYaHei-61" transform="translate(232.337891 0)"/>
      <use xlink:href="#MicrosoftYaHei-74" transform="translate(287.611328 0)"/>
      <use xlink:href="#MicrosoftYaHei-69" transform="translate(324.867188 0)"/>
      <use xlink:href="#MicrosoftYaHei-6f" transform="translate(351.478516 0)"/>
      <use xlink:href="#MicrosoftYaHei-6e" transform="translate(415.052734 0)"/>
      <use xlink:href="#MicrosoftYaHei-20" transform="translate(476.673828 0)"/>
      <use xlink:href="#MicrosoftYaHei-28" transform="translate(506.263672 0)"/>
      <use xlink:href="#MicrosoftYaHei-5747" transform="translate(539.662109 0)"/>
      <use xlink:href="#MicrosoftYaHei-503c" transform="translate(639.662109 0)"/>
      <use xlink:href="#MicrosoftYaHei-20" transform="translate(739.662109 0)"/>
      <use xlink:href="#MicrosoftYaHei-b1" transform="translate(769.251953 0)"/>
      <use xlink:href="#MicrosoftYaHei-20" transform="translate(843.421875 0)"/>
      <use xlink:href="#MicrosoftYaHei-8bef" transform="translate(873.011719 0)"/>
      <use xlink:href="#MicrosoftYaHei-5dee" transform="translate(973.011719 0)"/>
      <use xlink:href="#MicrosoftYaHei-29" transform="translate(1073.011719 0)"/>
     </g>
    </g>
    <g id="LineCollection_6">
     <path d="M 554.164844 444.185469 
L 554.164844 433.185469 
" style="fill: none; stroke: #1f77b4; stroke-opacity: 0.85; stroke-width: 1.5"/>
    </g>
    <g id="line2d_50">
     <g>
      <use xlink:href="#mb00dba6602" x="554.164844" y="444.185469" style="fill: #1f77b4; fill-opacity: 0.85; stroke: #1f77b4; stroke-opacity: 0.85; stroke-width: 1.5"/>
     </g>
    </g>
    <g id="line2d_51">
     <g>
      <use xlink:href="#mb00dba6602" x="554.164844" y="433.185469" style="fill: #1f77b4; fill-opacity: 0.85; stroke: #1f77b4; stroke-opacity: 0.85; stroke-width: 1.5"/>
     </g>
    </g>
    <g id="line2d_52">
     <path d="M 543.164844 438.685469 
L 565.164844 438.685469 
" style="fill: none; stroke-dasharray: 5.55,2.4; stroke-dashoffset: 0; stroke: #1f77b4; stroke-opacity: 0.85; stroke-width: 1.5"/>
    </g>
    <g id="line2d_53">
     <g>
      <use xlink:href="#m83e1347fbc" x="554.164844" y="438.685469" style="fill: #1f77b4; fill-opacity: 0.85; stroke: #1f77b4; stroke-opacity: 0.85; stroke-linejoin: miter"/>
     </g>
    </g>
    <g id="text_21">
     <!-- Test (均值 ± 误差) -->
     <g transform="translate(573.964844 442.535469) scale(0.11 -0.11)">
      <defs>
       <path id="MicrosoftYaHei-65" d="M 3363 1572 
L 944 1572 
Q 959 1019 1246 717 
Q 1534 416 2050 416 
Q 2631 416 3116 788 
L 3116 241 
Q 2659 -81 1906 -81 
Q 1156 -81 736 394 
Q 316 869 316 1713 
Q 316 2506 777 3022 
Q 1238 3538 1922 3538 
Q 2600 3538 2981 3102 
Q 3363 2666 3363 1881 
L 3363 1572 
z
M 2750 2063 
Q 2747 2531 2528 2787 
Q 2309 3044 1913 3044 
Q 1547 3044 1280 2772 
Q 1013 2500 944 2063 
L 2750 2063 
z
" transform="scale(0.015625)"/>
       <path id="MicrosoftYaHei-73" d="M 353 747 
Q 816 413 1350 413 
Q 2066 413 2066 881 
Q 2066 1081 1909 1211 
Q 1753 1341 1275 1519 
Q 700 1750 528 1976 
Q 356 2203 356 2525 
Q 356 2984 745 3261 
Q 1134 3538 1703 3538 
Q 2144 3538 2522 3384 
L 2522 2794 
Q 2134 3044 1644 3044 
Q 1350 3044 1165 2916 
Q 981 2788 981 2578 
Q 981 2372 1114 2256 
Q 1247 2141 1703 1959 
Q 2281 1744 2484 1512 
Q 2688 1281 2688 941 
Q 2688 466 2298 192 
Q 1909 -81 1291 -81 
Q 753 -81 353 122 
L 353 747 
z
" transform="scale(0.015625)"/>
      </defs>
      <use xlink:href="#MicrosoftYaHei-54"/>
      <use xlink:href="#MicrosoftYaHei-65" transform="translate(46.199219 0)"/>
      <use xlink:href="#MicrosoftYaHei-73" transform="translate(102.9375 0)"/>
      <use xlink:href="#MicrosoftYaHei-74" transform="translate(149.226562 0)"/>
      <use xlink:href="#MicrosoftYaHei-20" transform="translate(186.482422 0)"/>
      <use xlink:href="#MicrosoftYaHei-28" transform="translate(216.072266 0)"/>
      <use xlink:href="#MicrosoftYaHei-5747" transform="translate(249.470703 0)"/>
      <use xlink:href="#MicrosoftYaHei-503c" transform="translate(349.470703 0)"/>
      <use xlink:href="#MicrosoftYaHei-20" transform="translate(449.470703 0)"/>
      <use xlink:href="#MicrosoftYaHei-b1" transform="translate(479.060547 0)"/>
      <use xlink:href="#MicrosoftYaHei-20" transform="translate(553.230469 0)"/>
      <use xlink:href="#MicrosoftYaHei-8bef" transform="translate(582.820312 0)"/>
      <use xlink:href="#MicrosoftYaHei-5dee" transform="translate(682.820312 0)"/>
      <use xlink:href="#MicrosoftYaHei-29" transform="translate(782.820312 0)"/>
     </g>
    </g>
   </g>
  </g>
 </g>
 <defs>
  <clipPath id="p2f90adad3f">
   <rect x="48.928438" y="7.2" width="656.64625" height="447.97"/>
  </clipPath>
 </defs>
</svg>
